<svg width="200" height="194" viewBox="0 0 200 194" fill="none" xmlns="http://www.w3.org/2000/svg">
<path d="M163.406 1.40567C141.662 -2.18595 93.7585 6.00148 85.2795 41.0214C79.642 64.3049 79.8081 83.2996 65.5815 83.6561C57.1166 83.8681 52.7025 66.941 41.0154 65.5486C25.7627 63.7315 15.1775 75.996 8.57124 87.1029C-5.96198 111.537 -1.41744 153.087 17.6939 173.35C63.9783 222.423 118.943 171.105 142.443 130.984C157.516 105.251 191.52 84.4513 198.602 55.4437C204.531 31.159 191.375 6.02525 163.406 1.40567Z" fill="url(#paint0_linear)"/>
<path opacity="0.1" d="M177.918 171.02H22.0818C18.8459 171.02 16.2224 168.487 16.2224 165.362V46.8108C16.2224 43.6858 18.8459 41.1523 22.0818 41.1523H177.918C181.154 41.1523 183.777 43.6858 183.777 46.8108V165.362C183.777 168.487 181.154 171.02 177.918 171.02Z" fill="#2626BC"/>
<path d="M177.918 161.968H22.0818C18.8459 161.968 16.2224 159.434 16.2224 156.309V37.7583C16.2224 34.6333 18.8459 32.0999 22.0818 32.0999H177.918C181.154 32.0999 183.777 34.6333 183.777 37.7583V156.309C183.777 159.435 181.154 161.968 177.918 161.968Z" fill="white"/>
<path d="M22.0818 161.968H57.2498V68.6475H16.2224V156.309C16.2224 159.435 18.8455 161.968 22.0818 161.968Z" fill="#6583FE"/>
<path d="M57.2498 68.6475H131.032V161.967H57.2498V68.6475Z" fill="white"/>
<path d="M123.789 110.995V161.967H66.7576V110.995C66.7576 109.954 67.6326 109.109 68.7108 109.109H121.836C122.914 109.109 123.789 109.954 123.789 110.995Z" fill="#6583FE"/>
<path d="M118.383 145.704L104.051 131.863C103.685 131.509 103.189 131.31 102.671 131.31C102.153 131.31 101.655 131.509 101.289 131.863L93.0245 139.846L89.2487 136.2C88.4866 135.464 87.2491 135.464 86.4869 136.2L76.5948 145.753C75.8319 146.49 75.8319 147.684 76.5948 148.42C77.3569 149.157 78.5944 149.157 79.3565 148.42L87.8678 140.201L96.3491 148.391C96.7303 148.759 97.2303 148.944 97.7299 148.944C98.2295 148.944 98.7299 148.759 99.1108 148.391C99.8737 147.655 99.8737 146.46 99.1108 145.724L95.7866 142.514L102.671 135.864L115.622 148.371C116.003 148.739 116.503 148.923 117.003 148.923C117.502 148.923 118.003 148.739 118.383 148.371C119.146 147.634 119.146 146.44 118.383 145.704Z" fill="#2626BC"/>
<path d="M183.777 68.6475V37.7584C183.777 34.6334 181.154 32.0999 177.918 32.0999H22.0818C18.8459 32.0999 16.2224 34.6334 16.2224 37.7584V68.6475H183.777Z" fill="white"/>
<path d="M177.918 32.0999H131.031V68.6475H183.777V37.7584C183.777 34.6334 181.154 32.0999 177.918 32.0999Z" fill="#6583FE"/>
<path d="M183.777 58.2473V37.7584C183.777 34.6334 181.154 32.0999 177.918 32.0999H22.0818C18.8459 32.0999 16.2224 34.6334 16.2224 37.7584V58.2473H183.777Z" fill="#6583FE"/>
<path d="M177.918 163.854H22.0814C17.7736 163.854 14.2689 160.469 14.2689 156.309V37.7585C14.2689 33.5984 17.7736 30.2139 22.0814 30.2139H177.918C182.226 30.2139 185.73 33.5984 185.73 37.7585V156.309C185.731 160.469 182.226 163.854 177.918 163.854ZM22.0814 33.9862C19.9275 33.9862 18.1751 35.6784 18.1751 37.7585V156.309C18.1751 158.389 19.9275 160.082 22.0814 160.082H177.918C180.072 160.082 181.824 158.389 181.824 156.309V37.7585C181.824 35.6784 180.072 33.9862 177.918 33.9862H22.0814Z" fill="#2626BC"/>
<path d="M33.4463 50.1331C35.798 50.1331 37.7045 48.2919 37.7045 46.0206C37.7045 43.7494 35.798 41.9082 33.4463 41.9082C31.0945 41.9082 29.188 43.7494 29.188 46.0206C29.188 48.2919 31.0945 50.1331 33.4463 50.1331Z" fill="white"/>
<path d="M47.0404 50.1316C49.3922 50.1316 51.2986 48.2907 51.2986 46.0198C51.2986 43.7489 49.3922 41.908 47.0404 41.908C44.6887 41.908 42.7822 43.7489 42.7822 46.0198C42.7822 48.2907 44.6887 50.1316 47.0404 50.1316Z" fill="white"/>
<path d="M60.6342 50.1316C62.9859 50.1316 64.8924 48.2907 64.8924 46.0198C64.8924 43.7489 62.9859 41.908 60.6342 41.908C58.2824 41.908 56.376 43.7489 56.376 46.0198C56.376 48.2907 58.2824 50.1316 60.6342 50.1316Z" fill="white"/>
<path d="M168.859 50.6392H115.671V41.3999H168.859C169.937 41.3999 170.812 42.2444 170.812 43.2858V48.7536C170.812 49.795 169.937 50.6392 168.859 50.6392Z" fill="white"/>
<path d="M115.933 41.5171C113.868 39.5233 110.508 39.5233 108.444 41.5171C106.379 43.511 106.379 46.7552 108.444 48.7491C110.021 50.2718 112.351 50.6275 114.285 49.8248L115.983 51.4649C116.746 52.2012 117.983 52.2012 118.745 51.4649C119.508 50.7286 119.508 49.534 118.745 48.7977L117.047 47.1577C117.878 45.2902 117.51 43.0399 115.933 41.5171ZM111.206 44.1843C111.748 43.6611 112.629 43.6611 113.171 44.1843C113.713 44.7074 113.713 45.5588 113.171 46.0819C112.629 46.6051 111.748 46.6051 111.206 46.0819C110.664 45.5588 110.664 44.7074 111.206 44.1843Z" fill="#2626BC"/>
<path d="M81.3342 93.092H68.7119C67.6334 93.092 66.7588 92.2474 66.7588 91.2059V79.0165C66.7588 77.975 67.6334 77.1304 68.7119 77.1304H81.3342C82.4127 77.1304 83.2874 77.975 83.2874 79.0165V91.2059C83.2874 92.2474 82.4131 93.092 81.3342 93.092Z" fill="#6583FE"/>
<path d="M121.837 80.9023H89.3448C88.2662 80.9023 87.3916 81.7469 87.3916 82.7883C87.3916 83.8298 88.2662 84.6743 89.3448 84.6743H121.837C122.916 84.6743 123.79 83.8298 123.79 82.7883C123.79 81.7469 122.916 80.9023 121.837 80.9023Z" fill="#2626BC"/>
<path d="M121.836 88.6316H89.3448C88.2663 88.6316 87.3917 89.4761 87.3917 90.5176C87.3917 91.559 88.2663 92.4036 89.3448 92.4036H121.836C122.914 92.4036 123.789 91.559 123.789 90.5176C123.789 89.4761 122.914 88.6316 121.836 88.6316Z" fill="#2626BC"/>
<path d="M121.836 96.3599H68.7119C67.6334 96.3599 66.7588 97.2044 66.7588 98.2457C66.7588 99.2871 67.6334 100.132 68.7119 100.132H121.836C122.914 100.132 123.789 99.2871 123.789 98.2457C123.789 97.2044 122.914 96.3599 121.836 96.3599Z" fill="#2626BC"/>
<path d="M171.569 79.0161H154.311C153.233 79.0161 152.358 79.8607 152.358 80.9021C152.358 81.9435 153.233 82.7881 154.311 82.7881H171.569C172.648 82.7881 173.523 81.9435 173.523 80.9021C173.523 79.8607 172.648 79.0161 171.569 79.0161Z" fill="#2626BC"/>
<path d="M143.241 86.2981C146.327 86.2981 148.829 83.8823 148.829 80.9023C148.829 77.9224 146.327 75.5066 143.241 75.5066C140.155 75.5066 137.653 77.9224 137.653 80.9023C137.653 83.8823 140.155 86.2981 143.241 86.2981Z" fill="#6583FE"/>
<path d="M171.569 96.3591H154.311C153.233 96.3591 152.358 97.2037 152.358 98.2451C152.358 99.2866 153.233 100.131 154.311 100.131H171.569C172.648 100.131 173.523 99.2866 173.523 98.2451C173.523 97.2037 172.648 96.3591 171.569 96.3591Z" fill="#2626BC"/>
<path d="M143.241 103.642C146.327 103.642 148.829 101.226 148.829 98.2457C148.829 95.2654 146.327 92.8494 143.241 92.8494C140.155 92.8494 137.653 95.2654 137.653 98.2457C137.653 101.226 140.155 103.642 143.241 103.642Z" fill="#6583FE"/>
<path d="M171.569 113.703H154.311C153.233 113.703 152.358 114.547 152.358 115.589C152.358 116.63 153.233 117.475 154.311 117.475H171.569C172.648 117.475 173.523 116.63 173.523 115.589C173.523 114.547 172.648 113.703 171.569 113.703Z" fill="#2626BC"/>
<path d="M143.241 120.986C146.327 120.986 148.829 118.57 148.829 115.589C148.829 112.609 146.327 110.193 143.241 110.193C140.155 110.193 137.653 112.609 137.653 115.589C137.653 118.57 140.155 120.986 143.241 120.986Z" fill="#6583FE"/>
<path d="M171.569 131.047H154.311C153.233 131.047 152.358 131.891 152.358 132.933C152.358 133.974 153.233 134.819 154.311 134.819H171.569C172.648 134.819 173.523 133.974 173.523 132.933C173.523 131.891 172.648 131.047 171.569 131.047Z" fill="#2626BC"/>
<path d="M143.241 138.33C146.327 138.33 148.829 135.914 148.829 132.933C148.829 129.953 146.327 127.537 143.241 127.537C140.155 127.537 137.653 129.953 137.653 132.933C137.653 135.914 140.155 138.33 143.241 138.33Z" fill="#6583FE"/>
<path d="M171.569 148.39H154.311C153.233 148.39 152.358 149.234 152.358 150.276C152.358 151.317 153.233 152.161 154.311 152.161H171.569C172.648 152.161 173.523 151.317 173.523 150.276C173.523 149.234 172.648 148.39 171.569 148.39Z" fill="#2626BC"/>
<path d="M147.16 154.089C149.342 151.982 149.342 148.566 147.16 146.459C144.978 144.353 141.441 144.353 139.259 146.459C137.077 148.566 137.077 151.982 139.259 154.089C141.441 156.196 144.978 156.196 147.16 154.089Z" fill="#6583FE"/>
<path d="M120.981 113.908C120.981 114.95 120.107 115.795 119.027 115.795C117.948 115.795 117.073 114.95 117.073 113.908C117.073 112.867 117.948 112.022 119.027 112.022C120.107 112.022 120.981 112.867 120.981 113.908Z" fill="#2626BC"/>
<path d="M46.0486 84.5823H27.4232C26.3447 84.5823 25.4701 83.7378 25.4701 82.6964C25.4701 81.655 26.3447 80.8105 27.4232 80.8105H46.0486C47.1272 80.8105 48.0018 81.655 48.0018 82.6964C48.0018 83.7382 47.1272 84.5823 46.0486 84.5823Z" fill="#2626BC"/>
<path d="M46.0486 91.7861H27.4232C26.3447 91.7861 25.4701 90.9416 25.4701 89.9001C25.4701 88.8587 26.3447 88.0142 27.4232 88.0142H46.0486C47.1272 88.0142 48.0018 88.8587 48.0018 89.9001C48.0018 90.9416 47.1272 91.7861 46.0486 91.7861Z" fill="#2626BC"/>
<path d="M46.0486 104.82H27.4232C26.3447 104.82 25.4701 103.975 25.4701 102.934C25.4701 101.892 26.3447 101.048 27.4232 101.048H46.0486C47.1272 101.048 48.0018 101.892 48.0018 102.934C48.0018 103.975 47.1272 104.82 46.0486 104.82Z" fill="#2626BC"/>
<path d="M46.0486 112.023H27.4232C26.3447 112.023 25.4701 111.178 25.4701 110.137C25.4701 109.096 26.3447 108.251 27.4232 108.251H46.0486C47.1272 108.251 48.0018 109.096 48.0018 110.137C48.0018 111.179 47.1272 112.023 46.0486 112.023Z" fill="#2626BC"/>
<path d="M46.0486 125.057H27.4232C26.3447 125.057 25.4701 124.212 25.4701 123.171C25.4701 122.129 26.3447 121.285 27.4232 121.285H46.0486C47.1272 121.285 48.0018 122.129 48.0018 123.171C48.0018 124.213 47.1272 125.057 46.0486 125.057Z" fill="#2626BC"/>
<path d="M46.0486 132.26H27.4232C26.3447 132.26 25.4701 131.416 25.4701 130.374C25.4701 129.333 26.3447 128.489 27.4232 128.489H46.0486C47.1272 128.489 48.0018 129.333 48.0018 130.374C48.0018 131.416 47.1272 132.26 46.0486 132.26Z" fill="#2626BC"/>
<path d="M46.0486 145.294H27.4232C26.3447 145.294 25.4701 144.45 25.4701 143.408C25.4701 142.367 26.3447 141.522 27.4232 141.522H46.0486C47.1272 141.522 48.0018 142.367 48.0018 143.408C48.0018 144.45 47.1272 145.294 46.0486 145.294Z" fill="#2626BC"/>
<path d="M46.0486 152.497H27.4232C26.3447 152.497 25.4701 151.653 25.4701 150.611C25.4701 149.57 26.3447 148.726 27.4232 148.726H46.0486C47.1272 148.726 48.0018 149.57 48.0018 150.611C48.0018 151.653 47.1272 152.497 46.0486 152.497Z" fill="#2626BC"/>
<path d="M133.648 26.3093C130.569 26.3093 128.065 23.8912 128.065 20.919C128.065 17.9464 130.569 15.5283 133.648 15.5283C136.726 15.5283 139.23 17.9464 139.23 20.919C139.23 23.8908 136.726 26.3093 133.648 26.3093ZM133.648 19.3001C132.723 19.3001 131.971 20.0266 131.971 20.919C131.971 21.8114 132.723 22.5375 133.648 22.5375C134.572 22.5375 135.324 21.8114 135.324 20.919C135.324 20.0266 134.572 19.3001 133.648 19.3001Z" fill="#6583FE"/>
<path d="M113.578 19.2998C110.499 19.2998 107.995 16.8813 107.995 13.9086C107.995 10.9356 110.499 8.51709 113.578 8.51709C116.656 8.51709 119.16 10.9356 119.16 13.9086C119.16 16.8809 116.656 19.2998 113.578 19.2998ZM113.578 12.2895C112.653 12.2895 111.901 13.0161 111.901 13.9086C111.901 14.8012 112.653 15.5274 113.578 15.5274C114.502 15.5274 115.254 14.8012 115.254 13.9086C115.254 13.0161 114.502 12.2895 113.578 12.2895Z" fill="#6583FE"/>
<path d="M43.4111 182.354C42.3322 182.354 41.458 181.509 41.458 180.467C41.458 179.219 40.4068 178.204 39.1143 178.204C38.0354 178.204 37.1611 177.36 37.1611 176.318C37.1611 175.276 38.0354 174.432 39.1143 174.432C40.4068 174.432 41.458 173.416 41.458 172.168C41.458 171.126 42.3322 170.282 43.4111 170.282C44.49 170.282 45.3643 171.126 45.3643 172.168C45.3643 173.416 46.4154 174.432 47.708 174.432C48.7869 174.432 49.6611 175.276 49.6611 176.318C49.6611 177.36 48.7869 178.204 47.708 178.204C46.4154 178.204 45.3643 179.219 45.3643 180.467C45.3643 181.509 44.49 182.354 43.4111 182.354Z" fill="#6583FE"/>
<path d="M167.237 182.354C166.159 182.354 165.284 181.509 165.284 180.467C165.284 179.219 164.233 178.204 162.941 178.204C161.862 178.204 160.987 177.36 160.987 176.318C160.987 175.276 161.862 174.432 162.941 174.432C164.233 174.432 165.284 173.416 165.284 172.168C165.284 171.126 166.159 170.282 167.237 170.282C168.316 170.282 169.191 171.126 169.191 172.168C169.191 173.416 170.242 174.432 171.534 174.432C172.613 174.432 173.487 175.276 173.487 176.318C173.487 177.36 172.613 178.204 171.534 178.204C170.242 178.204 169.191 179.219 169.191 180.467C169.191 181.509 168.316 182.354 167.237 182.354Z" fill="#6583FE"/>
<path d="M140.907 182.354C139.828 182.354 138.953 181.509 138.953 180.467C138.953 179.219 137.902 178.204 136.61 178.204C135.531 178.204 134.657 177.36 134.657 176.318C134.657 175.276 135.531 174.432 136.61 174.432C137.902 174.432 138.953 173.416 138.953 172.168C138.953 171.126 139.828 170.282 140.907 170.282C141.985 170.282 142.86 171.126 142.86 172.168C142.86 173.416 143.911 174.432 145.203 174.432C146.282 174.432 147.157 175.276 147.157 176.318C147.157 177.36 146.282 178.204 145.203 178.204C143.911 178.204 142.86 179.219 142.86 180.467C142.86 181.509 141.985 182.354 140.907 182.354Z" fill="#6583FE"/>
<path d="M183.778 60.1333H16.222C15.1431 60.1333 14.2689 59.2891 14.2689 58.2473C14.2689 57.2055 15.1431 56.3613 16.222 56.3613H183.777C184.856 56.3613 185.73 57.2055 185.73 58.2473C185.731 59.2888 184.856 60.1333 183.778 60.1333Z" fill="#2626BC"/>
<path d="M131.031 161.968C129.952 161.968 129.078 161.124 129.078 160.082V58.1694C129.078 57.1274 129.952 56.2832 131.031 56.2832C132.11 56.2832 132.984 57.1274 132.984 58.1694V160.082C132.984 161.124 132.11 161.968 131.031 161.968Z" fill="#2626BC"/>
<defs>
<linearGradient id="paint0_linear" x1="3.41889" y1="151.793" x2="201.193" y2="33.5539" gradientUnits="userSpaceOnUse">
<stop stop-color="#D2DEFF" stop-opacity="0"/>
<stop offset="1" stop-color="#B7C5FF"/>
</linearGradient>
</defs>
</svg>
