<svg width="1002" height="115" viewBox="0 0 1002 115" fill="none" xmlns="http://www.w3.org/2000/svg">
<path d="M81.5 2.3H82.5V1.29999H81.5V2.3ZM81.5 83V84H82.5V83H81.5ZM58.1 83H57.1V84H58.1V83ZM58.1 21.5H59.1V20.5H58.1V21.5ZM24.5 21.5V20.5H23.5V21.5H24.5ZM24.5 83V84H25.5V83H24.5ZM1.25 83H0.25V84H1.25V83ZM1.25 2.3V1.29999H0.25V2.3H1.25ZM80.5 2.3V83H82.5V2.3H80.5ZM81.5 82H58.1V84H81.5V82ZM59.1 83V21.5H57.1V83H59.1ZM58.1 20.5H24.5V22.5H58.1V20.5ZM23.5 21.5V83H25.5V21.5H23.5ZM24.5 82H1.25V84H24.5V82ZM2.25 83V2.3H0.25V83H2.25ZM1.25 3.3H81.5V1.29999H1.25V3.3ZM118.786 78.95L118.312 79.8309L118.32 79.8351L118.328 79.8391L118.786 78.95ZM103.036 64.1L102.179 64.6165L103.036 64.1ZM103.036 21.2L102.179 20.6835H102.179L103.036 21.2ZM118.786 6.49999L119.249 7.38635L119.253 7.38378L118.786 6.49999ZM164.536 6.49999L164.062 7.38094L164.073 7.38634L164.536 6.49999ZM180.286 21.2L181.142 20.6835L180.286 21.2ZM180.286 64.1L181.142 64.6165L180.286 64.1ZM164.536 78.95L164.999 79.8364L165.009 79.8309L164.536 78.95ZM156.436 59L155.711 58.3108L155.711 58.3112L156.436 59ZM156.436 26.45L155.702 27.1298L155.711 27.139L155.72 27.1481L156.436 26.45ZM126.886 26.45L127.602 27.1482L127.61 27.1392L126.886 26.45ZM126.886 59L126.161 59.6893L126.17 59.6981L126.886 59ZM141.736 83.2C133.377 83.2 125.886 81.4802 119.243 78.0609L118.328 79.8391C125.285 83.4198 133.094 85.2 141.736 85.2V83.2ZM119.259 78.0691C112.711 74.551 107.596 69.7245 103.892 63.5835L102.179 64.6165C106.075 71.0755 111.46 76.149 118.312 79.8309L119.259 78.0691ZM103.892 63.5835C100.194 57.4529 98.3355 50.4844 98.3355 42.65H96.3355C96.3355 50.8156 98.2771 58.1471 102.179 64.6165L103.892 63.5835ZM98.3355 42.65C98.3355 34.8156 100.194 27.8471 103.892 21.7165L102.179 20.6835C98.2771 27.1529 96.3355 34.4844 96.3355 42.65H98.3355ZM103.892 21.7165C107.594 15.578 112.706 10.8039 119.249 7.38634L118.323 5.61365C111.465 9.1961 106.077 14.222 102.179 20.6835L103.892 21.7165ZM119.253 7.38378C125.895 3.86784 133.381 2.1 141.736 2.1V0.0999985C133.09 0.0999985 125.276 1.93215 118.318 5.6162L119.253 7.38378ZM141.736 2.1C150.09 2.1 157.524 3.86791 164.062 7.38088L165.009 5.6191C158.147 1.93208 150.381 0.0999985 141.736 0.0999985V2.1ZM164.073 7.38634C170.615 10.8039 175.727 15.578 179.429 21.7165L181.142 20.6835C177.244 14.222 171.856 9.1961 164.999 5.61365L164.073 7.38634ZM179.429 21.7165C183.127 27.8471 184.986 34.8156 184.986 42.65H186.986C186.986 34.4844 185.044 27.1529 181.142 20.6835L179.429 21.7165ZM184.986 42.65C184.986 50.4844 183.127 57.4529 179.429 63.5835L181.142 64.6165C185.044 58.1471 186.986 50.8156 186.986 42.65H184.986ZM179.429 63.5835C175.725 69.7245 170.61 74.551 164.062 78.0691L165.009 79.8309C171.861 76.149 177.246 71.0755 181.142 64.6165L179.429 63.5835ZM164.073 78.0636C157.532 81.4801 150.095 83.2 141.736 83.2V85.2C150.376 85.2 158.139 83.4199 164.999 79.8363L164.073 78.0636ZM141.736 66C147.983 66 153.154 63.906 157.161 59.6888L155.711 58.3112C152.117 62.094 147.488 64 141.736 64V66ZM157.16 59.6892C161.271 55.367 163.286 49.6516 163.286 42.65H161.286C161.286 49.2484 159.4 54.433 155.711 58.3108L157.16 59.6892ZM163.286 42.65C163.286 35.6493 161.272 29.9777 157.152 25.7519L155.72 27.1481C159.399 30.9223 161.286 36.0507 161.286 42.65H163.286ZM157.169 25.7702C153.165 21.4499 147.991 19.3 141.736 19.3V21.3C147.48 21.3 152.106 23.2501 155.702 27.1298L157.169 25.7702ZM141.736 19.3C135.48 19.3 130.262 21.4493 126.161 25.7608L127.61 27.1392C131.309 23.2507 135.991 21.3 141.736 21.3V19.3ZM126.17 25.7519C122.049 29.9777 120.036 35.6493 120.036 42.65H122.036C122.036 36.0507 123.922 30.9223 127.602 27.1481L126.17 25.7519ZM120.036 42.65C120.036 49.6516 122.05 55.367 126.161 59.6892L127.61 58.3108C123.921 54.433 122.036 49.2484 122.036 42.65H120.036ZM126.17 59.6981C130.273 63.9064 135.488 66 141.736 66V64C135.983 64 131.298 62.0936 127.602 58.3019L126.17 59.6981ZM282.33 2.3H283.33V1.29999H282.33V2.3ZM282.33 83V84H283.33V83H282.33ZM258.93 83H257.93V84H258.93V83ZM258.93 21.5H259.93V20.5H258.93V21.5ZM225.33 21.5V20.5H224.33V21.5H225.33ZM225.33 83V84H226.33V83H225.33ZM202.08 83H201.08V84H202.08V83ZM202.08 2.3V1.29999H201.08V2.3H202.08ZM281.33 2.3V83H283.33V2.3H281.33ZM282.33 82H258.93V84H282.33V82ZM259.93 83V21.5H257.93V83H259.93ZM258.93 20.5H225.33V22.5H258.93V20.5ZM224.33 21.5V83H226.33V21.5H224.33ZM225.33 82H202.08V84H225.33V82ZM203.08 83V2.3H201.08V83H203.08ZM202.08 3.3H282.33V1.29999H202.08V3.3ZM385.616 2.3L386.536 2.69157L387.128 1.29999H385.616V2.3ZM349.166 87.95L348.245 87.5584L348.241 87.5693L348.236 87.5803L349.166 87.95ZM335.366 107.6L334.797 106.777L334.79 106.782L335.366 107.6ZM303.266 111.35L303.568 110.397L303.266 111.35ZM293.216 105.95L292.326 105.493L291.971 106.184L292.553 106.699L293.216 105.95ZM301.766 89.3L302.43 88.5526L301.466 87.6953L300.876 88.8432L301.766 89.3ZM307.916 93.05L307.551 93.9812L307.558 93.9838L307.565 93.9863L307.916 93.05ZM322.766 92L322.166 91.2L322.153 91.2094L322.141 91.2191L322.766 92ZM328.166 84.35L329.079 84.7561L329.087 84.7389L329.094 84.7214L328.166 84.35ZM328.466 83.6L329.394 83.9714L329.548 83.5862L329.384 83.2051L328.466 83.6ZM293.516 2.3V1.29999H291.997L292.597 2.69493L293.516 2.3ZM317.666 2.3L318.59 1.91772L318.334 1.29999H317.666V2.3ZM340.316 57.05L339.392 57.4323L340.313 59.6585L341.239 57.4344L340.316 57.05ZM363.116 2.3V1.29999H362.449L362.192 1.91556L363.116 2.3ZM384.695 1.90841L348.245 87.5584L350.086 88.3416L386.536 2.69157L384.695 1.90841ZM348.236 87.5803C344.575 96.7826 340.073 103.132 334.797 106.777L335.934 108.423C341.658 104.468 346.356 97.7174 350.095 88.3197L348.236 87.5803ZM334.79 106.782C329.585 110.445 323.245 112.3 315.716 112.3V114.3C323.586 114.3 330.346 112.355 335.941 108.418L334.79 106.782ZM315.716 112.3C311.621 112.3 307.573 111.667 303.568 110.397L302.963 112.303C307.159 113.633 311.411 114.3 315.716 114.3V112.3ZM303.568 110.397C299.57 109.129 296.352 107.389 293.878 105.201L292.553 106.699C295.279 109.111 298.761 110.971 302.963 112.303L303.568 110.397ZM294.105 106.407L302.655 89.7568L300.876 88.8432L292.326 105.493L294.105 106.407ZM301.101 90.0474C302.992 91.728 305.144 93.0393 307.551 93.9812L308.28 92.1188C306.087 91.2607 304.139 90.0721 302.43 88.5526L301.101 90.0474ZM307.565 93.9863C310.064 94.9236 312.533 95.4 314.966 95.4V93.4C312.798 93.4 310.567 92.9764 308.267 92.1137L307.565 93.9863ZM314.966 95.4C318.335 95.4 321.173 94.5551 323.39 92.7809L322.141 91.2191C320.359 92.6449 317.997 93.4 314.966 93.4V95.4ZM323.366 92.8C325.559 91.155 327.446 88.4308 329.079 84.7561L327.252 83.9439C325.685 87.4692 323.972 89.845 322.166 91.2L323.366 92.8ZM329.094 84.7214L329.394 83.9714L327.537 83.2286L327.237 83.9786L329.094 84.7214ZM329.384 83.2051L294.434 1.90505L292.597 2.69493L327.547 83.9949L329.384 83.2051ZM293.516 3.3H317.666V1.29999H293.516V3.3ZM316.742 2.68227L339.392 57.4323L341.24 56.6677L318.59 1.91772L316.742 2.68227ZM341.239 57.4344L364.039 2.68443L362.192 1.91556L339.392 56.6656L341.239 57.4344ZM363.116 3.3H385.616V1.29999H363.116V3.3ZM468.591 2.3H469.591V1.29999H468.591V2.3ZM468.591 83V84H469.591V83H468.591ZM445.191 83H444.191V84H445.191V83ZM445.191 21.5H446.191V20.5H445.191V21.5ZM419.691 21.5V20.5H418.743L418.693 21.4474L419.691 21.5ZM418.941 35.75L417.943 35.6974L417.942 35.7049L417.942 35.7123L418.941 35.75ZM415.941 62.15L414.967 61.9272L415.941 62.15ZM408.141 78.65L408.885 79.319L408.141 78.65ZM380.991 82.85L379.993 82.7876L379.942 83.6141L380.744 83.8189L380.991 82.85ZM382.191 63.65L382.315 62.6577L381.26 62.5258L381.193 63.5876L382.191 63.65ZM393.441 60.2L392.619 59.6308L392.614 59.6377L393.441 60.2ZM397.041 50.45L398.03 50.6021L398.03 50.5983L397.041 50.45ZM398.391 34.7L399.39 34.7461L399.391 34.737L398.391 34.7ZM399.591 2.3V1.29999H398.628L398.592 2.26298L399.591 2.3ZM467.591 2.3V83H469.591V2.3H467.591ZM468.591 82H445.191V84H468.591V82ZM446.191 83V21.5H444.191V83H446.191ZM445.191 20.5H419.691V22.5H445.191V20.5ZM418.693 21.4474L417.943 35.6974L419.94 35.8026L420.69 21.5526L418.693 21.4474ZM417.942 35.7123C417.543 46.2765 416.548 55.0093 414.967 61.9272L416.916 62.3728C418.535 55.2907 419.539 46.4235 419.941 35.7877L417.942 35.7123ZM414.967 61.9272C413.392 68.8147 410.852 74.1429 407.398 77.981L408.885 79.319C412.63 75.1571 415.291 69.4854 416.916 62.3728L414.967 61.9272ZM407.398 77.981C404.024 81.7304 399.316 83.65 393.141 83.65V85.65C399.766 85.65 405.059 83.5696 408.885 79.319L407.398 77.981ZM393.141 83.65C389.852 83.65 385.889 83.0684 381.239 81.8811L380.744 83.8189C385.494 85.0316 389.631 85.65 393.141 85.65V83.65ZM381.989 82.9124L383.189 63.7124L381.193 63.5876L379.993 82.7876L381.989 82.9124ZM382.067 64.6423C383.67 64.8425 384.874 64.95 385.641 64.95V62.95C385.009 62.95 383.913 62.8575 382.315 62.6577L382.067 64.6423ZM385.641 64.95C389.412 64.95 392.351 63.5826 394.268 60.7623L392.614 59.6377C391.132 61.8174 388.871 62.95 385.641 62.95V64.95ZM394.264 60.7692C396.169 58.0176 397.412 54.6157 398.03 50.6021L396.053 50.2979C395.471 54.0843 394.314 57.1824 392.619 59.6308L394.264 60.7692ZM398.03 50.5983C398.638 46.5505 399.09 41.2625 399.39 34.7461L397.392 34.6539C397.093 41.1375 396.645 46.3495 396.052 50.3017L398.03 50.5983ZM399.391 34.737L400.591 2.33701L398.592 2.26298L397.392 34.663L399.391 34.737ZM399.591 3.3H468.591V1.29999H399.591V3.3ZM562.794 2.3H563.794V1.29999H562.794V2.3ZM562.794 83V84H563.794V83H562.794ZM541.944 83H540.944V84H541.944V83ZM541.944 59.9H542.944V58.9H541.944V59.9ZM524.694 59.9V58.9H524.157L523.86 59.3478L524.694 59.9ZM509.394 83V84H509.931L510.227 83.5522L509.394 83ZM484.494 83L483.674 82.4272L482.575 84H484.494V83ZM502.944 56.6L503.763 57.1728L504.49 56.1331L503.309 55.6692L502.944 56.6ZM490.044 47.15L489.221 47.7182L489.229 47.7295L489.237 47.7405L490.044 47.15ZM495.894 10.1L496.494 10.9L496.496 10.8986L495.894 10.1ZM513.294 24.05L512.725 23.2278L512.717 23.2331L512.709 23.2385L513.294 24.05ZM513.144 41.6L512.523 42.384L512.541 42.3982L512.559 42.4115L513.144 41.6ZM541.944 44.3V45.3H542.944V44.3H541.944ZM541.944 21.35H542.944V20.35H541.944V21.35ZM561.794 2.3V83H563.794V2.3H561.794ZM562.794 82H541.944V84H562.794V82ZM542.944 83V59.9H540.944V83H542.944ZM541.944 58.9H524.694V60.9H541.944V58.9ZM523.86 59.3478L508.56 82.4478L510.227 83.5522L525.527 60.4522L523.86 59.3478ZM509.394 82H484.494V84H509.394V82ZM485.313 83.5728L503.763 57.1728L502.124 56.0272L483.674 82.4272L485.313 83.5728ZM503.309 55.6692C497.853 53.5256 493.72 50.4803 490.851 46.5595L489.237 47.7405C492.368 52.0197 496.835 55.2744 502.578 57.5307L503.309 55.6692ZM490.867 46.5818C488.099 42.5738 486.694 37.7296 486.694 32H484.694C484.694 38.0704 486.188 43.3262 489.221 47.7182L490.867 46.5818ZM486.694 32C486.694 22.7722 489.978 15.787 496.494 10.9L495.294 9.3C488.21 14.613 484.694 22.2278 484.694 32H486.694ZM496.496 10.8986C503.166 5.87158 512.378 3.3 524.244 3.3V1.29999C512.109 1.29999 502.421 3.92841 495.292 9.30138L496.496 10.8986ZM524.244 3.3H562.794V1.29999H524.244V3.3ZM524.694 20.35C519.599 20.35 515.563 21.2625 512.725 23.2278L513.863 24.8722C516.224 23.2375 519.788 22.35 524.694 22.35V20.35ZM512.709 23.2385C509.873 25.2807 508.544 28.5342 508.544 32.75H510.544C510.544 28.9657 511.715 26.4193 513.878 24.8615L512.709 23.2385ZM508.544 32.75C508.544 36.9542 509.814 40.2393 512.523 42.384L513.764 40.8159C511.674 39.1607 510.544 36.5458 510.544 32.75H508.544ZM512.559 42.4115C515.306 44.3892 519.304 45.3 524.394 45.3V43.3C519.484 43.3 515.981 42.4108 513.728 40.7885L512.559 42.4115ZM524.394 45.3H541.944V43.3H524.394V45.3ZM542.944 44.3V21.35H540.944V44.3H542.944ZM541.944 20.35H524.694V22.35H541.944V20.35ZM653.233 6.34999L652.736 7.21736L652.744 7.22217L652.752 7.22681L653.233 6.34999ZM667.783 20.9L666.909 21.3857L666.912 21.3916L667.783 20.9ZM667.783 64.55L668.654 65.0416L668.657 65.0356L667.783 64.55ZM653.233 79.1L653.72 79.9735L653.725 79.9708L653.233 79.1ZM608.533 74.45L609.274 73.7779L607.533 71.8604V74.45H608.533ZM608.533 112.1V113.1H609.533V112.1H608.533ZM585.133 112.1H584.133V113.1H585.133V112.1ZM585.133 2.3V1.29999H584.133V2.3H585.133ZM607.483 2.3H608.483V1.29999H607.483V2.3ZM607.483 11.6H606.483V14.3742L608.253 12.238L607.483 11.6ZM643.483 59L642.759 58.3108L642.758 58.3112L643.483 59ZM643.483 26.45L642.75 27.1298L642.758 27.139L642.767 27.1481L643.483 26.45ZM613.933 26.45L613.209 25.7608L613.208 25.7613L613.933 26.45ZM613.933 59L613.2 59.6798L613.208 59.689L613.217 59.6981L613.933 59ZM632.833 2.1C640.171 2.1 646.797 3.81006 652.736 7.21736L653.731 5.48263C647.469 1.88993 640.496 0.0999985 632.833 0.0999985V2.1ZM652.752 7.22681C658.784 10.5343 663.499 15.2472 666.909 21.3856L668.657 20.4144C665.068 13.9528 660.083 8.9657 653.714 5.47318L652.752 7.22681ZM666.912 21.3916C670.315 27.4184 672.033 34.4935 672.033 42.65H674.033C674.033 34.2065 672.252 26.7816 668.654 20.4084L666.912 21.3916ZM672.033 42.65C672.033 50.8061 670.315 57.9341 666.909 64.0644L668.657 65.0356C672.252 58.5659 674.033 51.0939 674.033 42.65H672.033ZM666.912 64.0584C663.502 70.0998 658.783 74.8187 652.742 78.2292L653.725 79.9708C660.083 76.3813 665.065 71.4002 668.654 65.0416L666.912 64.0584ZM652.746 78.2265C646.806 81.5374 640.176 83.2 632.833 83.2V85.2C640.491 85.2 647.46 83.4626 653.72 79.9735L652.746 78.2265ZM632.833 83.2C622.762 83.2 614.951 80.0325 609.274 73.7779L607.793 75.1221C613.916 81.8675 622.305 85.2 632.833 85.2V83.2ZM607.533 74.45V112.1H609.533V74.45H607.533ZM608.533 111.1H585.133V113.1H608.533V111.1ZM586.133 112.1V2.3H584.133V112.1H586.133ZM585.133 3.3H607.483V1.29999H585.133V3.3ZM606.483 2.3V11.6H608.483V2.3H606.483ZM608.253 12.238C613.822 5.51768 621.959 2.1 632.833 2.1V0.0999985C621.508 0.0999985 612.745 3.68231 606.713 10.962L608.253 12.238ZM628.783 66C635.031 66 640.202 63.906 644.208 59.6888L642.758 58.3112C639.165 62.094 634.536 64 628.783 64V66ZM644.208 59.6892C648.319 55.367 650.333 49.6516 650.333 42.65H648.333C648.333 49.2484 646.447 54.433 642.759 58.3108L644.208 59.6892ZM650.333 42.65C650.333 35.6493 648.319 29.9777 644.199 25.7519L642.767 27.1481C646.447 30.9223 648.333 36.0507 648.333 42.65H650.333ZM644.217 25.7702C640.212 21.4499 635.039 19.3 628.783 19.3V21.3C634.528 21.3 639.154 23.2501 642.75 27.1298L644.217 25.7702ZM628.783 19.3C622.528 19.3 617.31 21.4493 613.209 25.7608L614.658 27.1392C618.357 23.2507 623.039 21.3 628.783 21.3V19.3ZM613.208 25.7613C609.193 29.9881 607.233 35.6564 607.233 42.65H609.233C609.233 36.0436 611.074 30.9119 614.658 27.1387L613.208 25.7613ZM607.233 42.65C607.233 49.6446 609.193 55.3566 613.2 59.6798L614.667 58.3202C611.073 54.4434 609.233 49.2554 609.233 42.65H607.233ZM613.217 59.6981C617.32 63.9064 622.536 66 628.783 66V64C623.031 64 618.346 62.0936 614.649 58.3019L613.217 59.6981ZM689.434 2.3V1.29999H688.434V2.3H689.434ZM712.684 2.3H713.684V1.29999H712.684V2.3ZM712.684 33.8H711.684V34.8H712.684V33.8ZM747.784 33.8V34.8H748.784V33.8H747.784ZM747.784 2.3V1.29999H746.784V2.3H747.784ZM771.184 2.3H772.184V1.29999H771.184V2.3ZM771.184 83V84H772.184V83H771.184ZM747.784 83H746.784V84H747.784V83ZM747.784 52.85H748.784V51.85H747.784V52.85ZM712.684 52.85V51.85H711.684V52.85H712.684ZM712.684 83V84H713.684V83H712.684ZM689.434 83H688.434V84H689.434V83ZM689.434 3.3H712.684V1.29999H689.434V3.3ZM711.684 2.3V33.8H713.684V2.3H711.684ZM712.684 34.8H747.784V32.8H712.684V34.8ZM748.784 33.8V2.3H746.784V33.8H748.784ZM747.784 3.3H771.184V1.29999H747.784V3.3ZM770.184 2.3V83H772.184V2.3H770.184ZM771.184 82H747.784V84H771.184V82ZM748.784 83V52.85H746.784V83H748.784ZM747.784 51.85H712.684V53.85H747.784V51.85ZM711.684 52.85V83H713.684V52.85H711.684ZM712.684 82H689.434V84H712.684V82ZM690.434 83V2.3H688.434V83H690.434ZM836.034 28.1L836.044 27.1H836.034V28.1ZM859.884 35.15L859.236 35.9112L859.884 35.15ZM858.834 75.8L859.46 76.5796L858.834 75.8ZM832.884 83.15L832.88 84.15H832.884V83.15ZM793.584 83H792.584V83.9962L793.58 84L793.584 83ZM793.584 2.3V1.29999H792.584V2.3H793.584ZM816.834 2.3H817.834V1.29999H816.834V2.3ZM816.834 28.1H815.834V29.1H816.834V28.1ZM876.684 2.3V1.29999H875.684V2.3H876.684ZM899.934 2.3H900.934V1.29999H899.934V2.3ZM899.934 83V84H900.934V83H899.934ZM876.684 83H875.684V84H876.684V83ZM830.784 66.5L830.806 65.5002L830.795 65.5H830.784V66.5ZM841.134 63.65L840.494 62.8818L841.134 63.65ZM841.134 46.1L840.518 46.8875L840.526 46.8938L840.534 46.9L841.134 46.1ZM830.784 43.25L830.806 42.2502L830.795 42.2501L830.784 43.25ZM816.834 43.1L816.845 42.1001L815.834 42.0892V43.1H816.834ZM816.834 66.5H815.834V67.5H816.834V66.5ZM836.024 29.1C846.399 29.1988 854.082 31.5215 859.236 35.9112L860.532 34.3888C854.886 29.5785 846.669 27.2012 836.044 27.1L836.024 29.1ZM859.236 35.9112C864.365 40.2811 866.984 46.5748 866.984 54.95H868.984C868.984 46.1252 866.203 39.2189 860.532 34.3888L859.236 35.9112ZM866.984 54.95C866.984 63.6982 864.034 70.3401 858.208 75.0204L859.46 76.5796C865.834 71.4599 868.984 64.2019 868.984 54.95H866.984ZM858.208 75.0204C852.348 79.7275 843.952 82.15 832.884 82.15V84.15C844.216 84.15 853.12 81.6725 859.46 76.5796L858.208 75.0204ZM832.888 82.15L793.588 82L793.58 84L832.88 84.15L832.888 82.15ZM794.584 83V2.3H792.584V83H794.584ZM793.584 3.3H816.834V1.29999H793.584V3.3ZM815.834 2.3V28.1H817.834V2.3H815.834ZM816.834 29.1H836.034V27.1H816.834V29.1ZM876.684 3.3H899.934V1.29999H876.684V3.3ZM898.934 2.3V83H900.934V2.3H898.934ZM899.934 82H876.684V84H899.934V82ZM877.684 83V2.3H875.684V83H877.684ZM830.762 67.4998C835.399 67.6028 839.121 66.6289 841.774 64.4182L840.494 62.8818C838.347 64.6711 835.169 65.5972 830.806 65.5002L830.762 67.4998ZM841.774 64.4182C844.463 62.1774 845.734 58.8569 845.734 54.65H843.734C843.734 58.4431 842.605 61.1226 840.494 62.8818L841.774 64.4182ZM845.734 54.65C845.734 50.5386 844.458 47.3433 841.734 45.3L840.534 46.9C842.61 48.4567 843.734 50.9614 843.734 54.65H845.734ZM841.75 45.3125C839.207 43.3224 835.506 42.3524 830.806 42.2502L830.762 44.2498C835.262 44.3476 838.461 45.2776 840.518 46.8875L841.75 45.3125ZM830.795 42.2501L816.845 42.1001L816.823 44.0999L830.773 44.2499L830.795 42.2501ZM815.834 43.1V66.5H817.834V43.1H815.834ZM816.834 67.5H830.784V65.5H816.834V67.5ZM1000.49 49.25V50.25H1001.42L1001.49 49.3267L1000.49 49.25ZM939.44 49.25V48.25H938.196L938.464 49.4649L939.44 49.25ZM947.24 61.1L946.663 61.9164L947.24 61.1ZM973.64 63.65L973.991 64.5863L973.999 64.5834L974.007 64.5804L973.64 63.65ZM982.79 57.65L983.525 56.9721L982.832 56.2204L982.096 56.9302L982.79 57.65ZM995.24 71.15L995.993 71.8079L996.584 71.1319L995.975 70.4721L995.24 71.15ZM937.79 78.95L937.333 79.8393L937.343 79.8444L937.79 78.95ZM921.59 64.1L920.734 64.6165L921.59 64.1ZM921.44 21.35L920.58 20.8395L920.578 20.8436L921.44 21.35ZM936.89 6.49999L937.364 7.38048L937.369 7.37789L936.89 6.49999ZM980.39 6.2L980.859 5.31688L980.39 6.2ZM995.39 20.9L994.519 21.3903L994.523 21.3984L994.528 21.4064L995.39 20.9ZM939.14 35.6L938.152 35.4479L937.975 36.6H939.14V35.6ZM978.89 35.6V36.6H980.059L979.878 35.445L978.89 35.6ZM972.29 23.45L971.638 24.2078L971.644 24.213L971.65 24.2182L972.29 23.45ZM999.94 42.95C999.94 42.9496 999.94 42.9528 999.94 42.9607C999.94 42.9683 999.94 42.9785 999.939 42.9916C999.938 43.0182 999.937 43.053 999.934 43.0969C999.93 43.1848 999.923 43.3021 999.914 43.4501C999.896 43.7458 999.868 44.1549 999.83 44.6787C999.755 45.726 999.643 47.2239 999.493 49.1733L1001.49 49.3267C1001.78 45.4637 1001.94 43.3007 1001.94 42.95H999.94ZM1000.49 48.25H939.44V50.25H1000.49V48.25ZM938.464 49.4649C939.616 54.7029 942.355 58.8695 946.663 61.9164L947.818 60.2836C943.925 57.5305 941.465 53.7971 940.417 49.0351L938.464 49.4649ZM946.663 61.9164C950.965 64.9595 956.279 66.45 962.54 66.45V64.45C956.602 64.45 951.715 63.0405 947.818 60.2836L946.663 61.9164ZM962.54 66.45C966.834 66.45 970.657 65.8368 973.991 64.5863L973.289 62.7137C970.224 63.8632 966.647 64.45 962.54 64.45V66.45ZM974.007 64.5804C977.44 63.2279 980.599 61.152 983.484 58.3698L982.096 56.9302C979.381 59.548 976.44 61.4721 973.274 62.7196L974.007 64.5804ZM982.055 58.3279L994.505 71.8279L995.975 70.4721L983.525 56.9721L982.055 58.3279ZM994.487 70.4921C987.125 78.9198 976.333 83.2 961.94 83.2V85.2C976.747 85.2 988.155 80.7802 995.993 71.8079L994.487 70.4921ZM961.94 83.2C952.97 83.2 945.078 81.4757 938.237 78.0556L937.343 79.8444C944.503 83.4243 952.71 85.2 961.94 85.2V83.2ZM938.248 78.0607C931.401 74.5394 926.144 69.7135 922.447 63.5835L920.734 64.6165C924.637 71.0865 930.18 76.1606 937.333 79.8393L938.248 78.0607ZM922.447 63.5835C918.749 57.4529 916.89 50.4844 916.89 42.65H914.89C914.89 50.8156 916.832 58.1471 920.734 64.6165L922.447 63.5835ZM916.89 42.65C916.89 34.9131 918.7 27.9905 922.303 21.8564L920.578 20.8436C916.781 27.3095 914.89 34.5869 914.89 42.65H916.89ZM922.3 21.8605C926.008 15.6152 931.026 10.7937 937.364 7.38046L936.416 5.61952C929.755 9.2063 924.472 14.2848 920.58 20.8395L922.3 21.8605ZM937.369 7.37789C943.811 3.86416 950.994 2.1 958.94 2.1V0.0999985C950.686 0.0999985 943.17 1.93584 936.411 5.62209L937.369 7.37789ZM958.94 2.1C966.692 2.1 973.678 3.76664 979.921 7.08311L980.859 5.31688C974.302 1.83336 966.989 0.0999985 958.94 0.0999985V2.1ZM979.921 7.08311C986.15 10.3921 991.011 15.1547 994.519 21.3903L996.262 20.4097C992.569 13.8453 987.431 8.80789 980.859 5.31688L979.921 7.08311ZM994.528 21.4064C998.125 27.5311 999.94 34.701 999.94 42.95H1001.94C1001.94 34.399 1000.06 26.8689 996.253 20.3936L994.528 21.4064ZM959.09 17.8C953.589 17.8 948.903 19.3624 945.1 22.5318L946.38 24.0682C949.777 21.2376 953.992 19.8 959.09 19.8V17.8ZM945.1 22.5318C941.289 25.7072 938.984 30.0387 938.152 35.4479L940.129 35.7521C940.896 30.7613 942.991 26.8928 946.38 24.0682L945.1 22.5318ZM939.14 36.6H978.89V34.6H939.14V36.6ZM979.878 35.445C979.045 30.1314 976.736 25.8534 972.93 22.6818L971.65 24.2182C975.044 27.0466 977.136 30.8686 977.902 35.755L979.878 35.445ZM972.943 22.6922C969.144 19.4208 964.505 17.8 959.09 17.8V19.8C964.075 19.8 968.237 21.2792 971.638 24.2078L972.943 22.6922Z" fill="url(#paint0_linear)"/>
<defs>
<linearGradient id="paint0_linear" x1="602.336" y1="-52.4133" x2="590.713" y2="136.424" gradientUnits="userSpaceOnUse">
<stop stop-color="#FF3E6C"/>
<stop offset="1" stop-color="#FFBD3D"/>
</linearGradient>
</defs>
</svg>
