<svg width="900" height="127" viewBox="0 0 900 127" fill="none" xmlns="http://www.w3.org/2000/svg">
<path d="M97.75 1.99999H99.75V-7.62939e-06H97.75V1.99999ZM97.75 107V109H99.75V107H97.75ZM73.6 107H71.6V109H73.6V107ZM73.6 21.8H75.6V19.8H73.6V21.8ZM26.2 21.8V19.8H24.2V21.8H26.2ZM26.2 107V109H28.2V107H26.2ZM2.05 107H0.0500011V109H2.05V107ZM2.05 1.99999V-7.62939e-06H0.0500011V1.99999H2.05ZM95.75 1.99999V107H99.75V1.99999H95.75ZM97.75 105H73.6V109H97.75V105ZM75.6 107V21.8H71.6V107H75.6ZM73.6 19.8H26.2V23.8H73.6V19.8ZM24.2 21.8V107H28.2V21.8H24.2ZM26.2 105H2.05V109H26.2V105ZM4.05 107V1.99999H0.0500011V107H4.05ZM2.05 3.99999H97.75V-7.62939e-06H2.05V3.99999ZM136.829 102.95L135.882 104.712L135.897 104.72L135.913 104.728L136.829 102.95ZM121.079 88.1L119.366 89.133L121.079 88.1ZM121.079 45.2L119.366 44.167L121.079 45.2ZM136.829 30.5L137.755 32.2727L137.764 32.2676L136.829 30.5ZM182.579 30.5L181.632 32.2618L181.642 32.2673L181.652 32.2727L182.579 30.5ZM198.329 45.2L200.041 44.167L198.329 45.2ZM198.329 88.1L200.041 89.133L198.329 88.1ZM182.579 102.95L183.505 104.723L183.515 104.717L183.525 104.712L182.579 102.95ZM174.479 83L173.029 81.6216L173.029 81.6225L174.479 83ZM174.479 50.45L173.012 51.8095L173.029 51.8281L173.047 51.8462L174.479 50.45ZM144.929 50.45L146.361 51.8462L146.369 51.8374L146.378 51.8284L144.929 50.45ZM144.929 83L143.479 84.3784L143.488 84.3874L143.497 84.3962L144.929 83ZM159.779 106.2C151.561 106.2 144.23 104.51 137.744 101.172L135.913 104.728C143.027 108.39 150.996 110.2 159.779 110.2V106.2ZM137.775 101.188C131.38 97.752 126.399 93.0491 122.791 87.067L119.366 89.133C123.358 95.7509 128.877 100.948 135.882 104.712L137.775 101.188ZM122.791 87.067C119.195 81.1058 117.379 74.3188 117.379 66.65H113.379C113.379 74.9812 115.362 82.4942 119.366 89.133L122.791 87.067ZM117.379 66.65C117.379 58.9812 119.195 52.1942 122.791 46.233L119.366 44.167C115.362 50.8058 113.379 58.3188 113.379 66.65H117.379ZM122.791 46.233C126.396 40.2559 131.37 35.6078 137.755 32.2727L135.902 28.7273C128.887 32.3922 123.361 37.5441 119.366 44.167L122.791 46.233ZM137.764 32.2676C144.247 28.8357 151.57 27.1 159.779 27.1V23.1C150.987 23.1 143.01 24.9643 135.893 28.7324L137.764 32.2676ZM159.779 27.1C167.988 27.1 175.256 28.8358 181.632 32.2618L183.525 28.7382C176.501 24.9642 168.569 23.1 159.779 23.1V27.1ZM181.652 32.2727C188.037 35.6078 193.011 40.2559 196.616 46.233L200.041 44.167C196.046 37.5441 190.52 32.3922 183.505 28.7273L181.652 32.2727ZM196.616 46.233C200.212 52.1942 202.029 58.9812 202.029 66.65H206.029C206.029 58.3188 204.045 50.8058 200.041 44.167L196.616 46.233ZM202.029 66.65C202.029 74.3188 200.212 81.1058 196.616 87.067L200.041 89.133C204.045 82.4942 206.029 74.9812 206.029 66.65H202.029ZM196.616 87.067C193.008 93.0491 188.027 97.752 181.632 101.188L183.525 104.712C190.53 100.948 196.049 95.7509 200.041 89.133L196.616 87.067ZM181.652 101.177C175.272 104.51 167.997 106.2 159.779 106.2V110.2C168.56 110.2 176.485 108.39 183.505 104.723L181.652 101.177ZM159.779 91C166.273 91 171.716 88.812 175.929 84.3775L173.029 81.6225C169.641 85.188 165.284 87 159.779 87V91ZM175.928 84.3784C180.25 79.834 182.329 73.8532 182.329 66.65H178.329C178.329 73.0468 176.507 77.966 173.029 81.6216L175.928 84.3784ZM182.329 66.65C182.329 59.4486 180.251 53.5054 175.911 49.0538L173.047 51.8462C176.506 55.3946 178.329 60.2514 178.329 66.65H182.329ZM175.945 49.0905C171.737 44.5497 166.29 42.3 159.779 42.3V46.3C165.267 46.3 169.62 48.1503 173.012 51.8095L175.945 49.0905ZM159.779 42.3C153.268 42.3 147.782 44.5487 143.479 49.0716L146.378 51.8284C149.875 48.1513 154.289 46.3 159.779 46.3V42.3ZM143.497 49.0538C139.156 53.5054 137.079 59.4486 137.079 66.65H141.079C141.079 60.2514 142.901 55.3946 146.361 51.8462L143.497 49.0538ZM137.079 66.65C137.079 73.8532 139.157 79.834 143.479 84.3784L146.378 81.6216C142.9 77.966 141.079 73.0468 141.079 66.65H137.079ZM143.497 84.3962C147.803 88.8129 153.284 91 159.779 91V87C154.273 87 149.854 85.1871 146.361 81.6038L143.497 84.3962ZM235.273 102.95L234.337 104.718L234.353 104.726L234.368 104.734L235.273 102.95ZM219.223 88.1L217.51 89.133L217.516 89.1429L217.523 89.1527L219.223 88.1ZM219.223 45.2L217.523 44.1473L217.516 44.1571L217.51 44.167L219.223 45.2ZM235.273 30.5L236.188 32.2783L236.198 32.2732L235.273 30.5ZM280.723 30.5L279.731 32.2365L279.747 32.2458L279.763 32.2547L280.723 30.5ZM294.673 45.65L295.62 47.4119L297.247 46.5373L296.504 44.8455L294.673 45.65ZM276.523 55.4L274.784 56.3872L275.748 58.0866L277.47 57.1619L276.523 55.4ZM243.223 83L244.637 81.5858L243.223 83ZM276.523 77.9L277.481 76.1442L275.737 75.1928L274.774 76.9307L276.523 77.9ZM294.673 87.8L296.495 88.6255L297.261 86.9336L295.631 86.0442L294.673 87.8ZM280.723 102.8L279.742 101.057L279.731 101.064L280.723 102.8ZM258.523 106.2C250.202 106.2 242.767 104.509 236.178 101.166L234.368 104.734C241.579 108.391 249.644 110.2 258.523 110.2V106.2ZM236.209 101.182C229.71 97.7419 224.629 93.0334 220.924 87.0473L217.523 89.1527C221.617 95.7666 227.236 100.958 234.337 104.718L236.209 101.182ZM220.936 87.067C217.34 81.1058 215.523 74.3188 215.523 66.65H211.523C211.523 74.9812 213.506 82.4942 217.51 89.133L220.936 87.067ZM215.523 66.65C215.523 58.9812 217.34 52.1942 220.936 46.233L217.51 44.167C213.506 50.8058 211.523 58.3188 211.523 66.65H215.523ZM220.924 46.2527C224.626 40.2716 229.7 35.6178 236.188 32.2783L234.358 28.7217C227.246 32.3822 221.62 37.5284 217.523 44.1473L220.924 46.2527ZM236.198 32.2732C242.784 28.8373 250.211 27.1 258.523 27.1V23.1C249.635 23.1 241.563 24.9627 234.348 28.7268L236.198 32.2732ZM258.523 27.1C266.735 27.1 273.781 28.8367 279.731 32.2365L281.715 28.7635C275.065 24.9633 267.311 23.1 258.523 23.1V27.1ZM279.763 32.2547C285.781 35.5456 290.122 40.2639 292.842 46.4545L296.504 44.8455C293.424 37.8361 288.465 32.4544 281.683 28.7452L279.763 32.2547ZM293.727 43.8881L275.577 53.6381L277.47 57.1619L295.62 47.4119L293.727 43.8881ZM278.262 54.4128C273.741 46.4458 267.058 42.3 258.373 42.3V46.3C265.488 46.3 270.905 49.5542 274.784 56.3872L278.262 54.4128ZM258.373 42.3C251.789 42.3 246.215 44.4795 241.809 48.8858L244.637 51.7142C248.231 48.1205 252.758 46.3 258.373 46.3V42.3ZM241.809 48.8858C237.354 53.3403 235.223 59.3437 235.223 66.65H239.223C239.223 60.1563 241.092 55.2597 244.637 51.7142L241.809 48.8858ZM235.223 66.65C235.223 73.9563 237.354 79.9597 241.809 84.4142L244.637 81.5858C241.092 78.0403 239.223 73.1437 239.223 66.65H235.223ZM241.809 84.4142C246.215 88.8205 251.789 91 258.373 91V87C252.758 87 248.231 85.1795 244.637 81.5858L241.809 84.4142ZM258.373 91C262.693 91 266.576 89.9971 269.954 87.9312C273.326 85.8688 276.087 82.8134 278.272 78.8693L274.774 76.9307C272.859 80.3866 270.545 82.8812 267.867 84.5188C265.195 86.1529 262.053 87 258.373 87V91ZM275.565 79.6558L293.715 89.5558L295.631 86.0442L277.481 76.1442L275.565 79.6558ZM292.851 86.9745C290.135 92.9687 285.789 97.6554 279.743 101.057L281.704 104.543C288.457 100.745 293.411 95.4313 296.495 88.6255L292.851 86.9745ZM279.731 101.064C273.781 104.463 266.735 106.2 258.523 106.2V110.2C267.311 110.2 275.065 108.337 281.715 104.536L279.731 101.064ZM385.121 26.3H387.121V24.3H385.121V26.3ZM385.121 107V109H387.121V107H385.121ZM361.721 107H359.721V109H361.721V107ZM361.721 45.5H363.721V43.5H361.721V45.5ZM336.221 45.5V43.5H334.323L334.223 45.3949L336.221 45.5ZM335.471 59.75L333.473 59.6449L333.473 59.6597L333.472 59.6746L335.471 59.75ZM332.471 86.15L330.521 85.7043L332.471 86.15ZM324.671 102.65L326.157 103.988L324.671 102.65ZM297.521 106.85L295.525 106.725L295.421 108.378L297.026 108.788L297.521 106.85ZM298.721 87.65L298.969 85.6654L296.857 85.4015L296.725 87.5252L298.721 87.65ZM309.971 84.2L308.326 83.0616L308.322 83.0685L308.317 83.0754L309.971 84.2ZM313.571 74.45L315.547 74.7541L315.549 74.7467L313.571 74.45ZM314.921 58.7L316.919 58.7922L316.919 58.7831L316.919 58.774L314.921 58.7ZM316.121 26.3V24.3H314.193L314.122 26.226L316.121 26.3ZM383.121 26.3V107H387.121V26.3H383.121ZM385.121 105H361.721V109H385.121V105ZM363.721 107V45.5H359.721V107H363.721ZM361.721 43.5H336.221V47.5H361.721V43.5ZM334.223 45.3949L333.473 59.6449L337.468 59.8551L338.218 45.6051L334.223 45.3949ZM333.472 59.6746C333.075 70.2029 332.083 78.8686 330.521 85.7043L334.42 86.5956C336.058 79.4314 337.067 70.4971 337.469 59.8254L333.472 59.6746ZM330.521 85.7043C328.972 92.4793 326.493 97.6359 323.184 101.312L326.157 103.988C330.049 99.6641 332.769 93.8207 334.42 86.5956L330.521 85.7043ZM323.184 101.312C320.035 104.811 315.621 106.65 309.671 106.65V110.65C316.521 110.65 322.106 108.489 326.157 103.988L323.184 101.312ZM309.671 106.65C306.492 106.65 302.616 106.087 298.015 104.912L297.026 108.788C301.825 110.013 306.05 110.65 309.671 110.65V106.65ZM299.517 106.975L300.717 87.7748L296.725 87.5252L295.525 106.725L299.517 106.975ZM298.473 89.6346C300.077 89.8351 301.335 89.95 302.171 89.95V85.95C301.606 85.95 300.564 85.8649 298.969 85.6654L298.473 89.6346ZM302.171 89.95C306.212 89.95 309.489 88.4651 311.625 85.3246L308.317 83.0754C307.052 84.9349 305.129 85.95 302.171 85.95V89.95ZM311.615 85.3384C313.625 82.4351 314.912 78.8814 315.547 74.7541L311.594 74.1459C311.029 77.8186 309.916 80.7649 308.326 83.0616L311.615 85.3384ZM315.549 74.7467C316.163 70.6509 316.617 65.3249 316.919 58.7922L312.923 58.6078C312.624 65.0751 312.178 70.2491 311.593 74.1533L315.549 74.7467ZM316.919 58.774L318.119 26.374L314.122 26.226L312.922 58.626L316.919 58.774ZM316.121 28.3H385.121V24.3H316.121V28.3ZM485.623 73.25V75.25H487.475L487.617 73.4034L485.623 73.25ZM424.573 73.25V71.25H422.085L422.62 73.6797L424.573 73.25ZM432.373 85.1L431.218 86.7328L432.373 85.1ZM458.773 87.65L459.475 89.5227L459.491 89.5169L459.506 89.5108L458.773 87.65ZM467.923 81.65L469.393 80.2941L468.007 78.7908L466.535 80.2103L467.923 81.65ZM480.373 95.15L481.879 96.4658L483.06 95.1138L481.843 93.7941L480.373 95.15ZM422.923 102.95L422.008 104.729L422.018 104.734L422.029 104.739L422.923 102.95ZM406.723 88.1L405.01 89.133L406.723 88.1ZM406.573 45.35L404.853 44.3289L404.848 44.3372L406.573 45.35ZM422.023 30.5L422.971 32.261L422.981 32.2558L422.023 30.5ZM465.523 30.2L466.461 28.4338L465.523 30.2ZM480.523 44.9L478.78 45.8805L478.789 45.8968L478.798 45.9128L480.523 44.9ZM424.273 59.6L422.296 59.2959L421.942 61.6H424.273V59.6ZM464.023 59.6V61.6H466.361L465.999 59.2901L464.023 59.6ZM457.423 47.45L456.118 48.9655L456.13 48.9761L456.143 48.9864L457.423 47.45ZM484.073 66.95C484.073 66.9484 484.069 67.0644 484.049 67.3877C484.031 67.679 484.003 68.0847 483.966 68.6075C483.891 69.652 483.779 71.1477 483.629 73.0966L487.617 73.4034C487.911 69.5775 488.073 67.3514 488.073 66.95H484.073ZM485.623 71.25H424.573V75.25H485.623V71.25ZM422.62 73.6797C423.824 79.1557 426.703 83.5391 431.218 86.7328L433.528 83.4672C429.843 80.8609 427.522 77.3443 426.526 72.8203L422.62 73.6797ZM431.218 86.7328C435.723 89.9191 441.25 91.45 447.673 91.45V87.45C441.896 87.45 437.223 86.0809 433.528 83.4672L431.218 86.7328ZM447.673 91.45C452.06 91.45 456.006 90.8237 459.475 89.5227L458.071 85.7773C455.14 86.8763 451.686 87.45 447.673 87.45V91.45ZM459.506 89.5108C463.073 88.1058 466.341 85.954 469.311 83.0897L466.535 80.2103C463.905 82.746 461.073 84.5942 458.04 85.7892L459.506 89.5108ZM466.453 83.0059L478.903 96.5059L481.843 93.7941L469.393 80.2941L466.453 83.0059ZM478.867 93.8342C471.743 101.99 461.26 106.2 447.073 106.2V110.2C462.086 110.2 473.804 105.71 481.879 96.4658L478.867 93.8342ZM447.073 106.2C438.233 106.2 430.498 104.501 423.817 101.161L422.029 104.739C429.348 108.399 437.713 110.2 447.073 110.2V106.2ZM423.838 101.171C417.144 97.7288 412.03 93.0269 408.436 87.067L405.01 89.133C409.016 95.7731 414.702 100.971 422.008 104.729L423.838 101.171ZM408.436 87.067C404.84 81.1058 403.023 74.3188 403.023 66.65H399.023C399.023 74.9812 401.006 82.4942 405.01 89.133L408.436 87.067ZM403.023 66.65C403.023 59.0762 404.793 52.331 408.298 46.3628L404.848 44.3372C400.954 50.969 399.023 58.4238 399.023 66.65H403.023ZM408.293 46.3711C411.909 40.2804 416.794 35.5874 422.971 32.2609L421.075 28.7391C414.253 32.4126 408.837 37.6196 404.853 44.3289L408.293 46.3711ZM422.981 32.2558C429.264 28.8283 436.281 27.1 444.073 27.1V23.1C435.665 23.1 427.982 24.9717 421.065 28.7442L422.981 32.2558ZM444.073 27.1C451.676 27.1 458.499 28.7333 464.585 31.9662L466.461 28.4338C459.747 24.8667 452.27 23.1 444.073 23.1V27.1ZM464.585 31.9662C470.642 35.1842 475.365 39.8093 478.78 45.8805L482.266 43.9195C478.481 37.1907 473.204 32.0158 466.461 28.4338L464.585 31.9662ZM478.798 45.9128C482.293 51.8622 484.073 58.852 484.073 66.95H488.073C488.073 58.248 486.154 50.5378 482.248 43.8872L478.798 45.9128ZM444.223 40.8C438.52 40.8 433.599 42.4249 429.593 45.7635L432.153 48.8364C435.347 46.1751 439.326 44.8 444.223 44.8V40.8ZM429.593 45.7635C425.572 49.1145 423.161 53.6774 422.296 59.2959L426.25 59.9041C426.985 55.1226 428.975 51.4855 432.153 48.8364L429.593 45.7635ZM424.273 61.6H464.023V57.6H424.273V61.6ZM465.999 59.2901C465.132 53.7629 462.715 49.2568 458.703 45.9136L456.143 48.9864C459.331 51.6432 461.314 55.2371 462.047 59.9099L465.999 59.2901ZM458.728 45.9345C454.73 42.4915 449.853 40.8 444.223 40.8V44.8C448.993 44.8 452.916 46.2085 456.118 48.9655L458.728 45.9345ZM593.727 87.8H595.727V85.8H593.727V87.8ZM593.727 124.4V126.4H595.727V124.4H593.727ZM571.977 124.4H569.977V126.4H571.977V124.4ZM571.977 107H573.977V105H571.977V107ZM515.277 107V105H513.277V107H515.277ZM515.277 124.4V126.4H517.277V124.4H515.277ZM493.527 124.4H491.527V126.4H493.527V124.4ZM493.527 87.8V85.8H491.527V87.8H493.527ZM496.827 87.8V89.8H496.847L496.867 89.7996L496.827 87.8ZM510.777 54.2L512.775 54.2934L512.776 54.2843L512.776 54.2752L510.777 54.2ZM511.827 26.3V24.3H509.901L509.829 26.2248L511.827 26.3ZM582.177 26.3H584.177V24.3H582.177V26.3ZM582.177 87.8H580.177V89.8H582.177V87.8ZM531.927 55.85L529.929 55.7631L529.929 55.7769L531.927 55.85ZM529.977 75.95L528.013 75.5723L528.01 75.5906L528.007 75.6089L529.977 75.95ZM524.727 87.8L523.287 86.4127L520.025 89.8H524.727V87.8ZM558.777 87.8V89.8H560.777V87.8H558.777ZM558.777 45.5H560.777V43.5H558.777V45.5ZM532.377 45.5V43.5H530.462L530.379 45.4131L532.377 45.5ZM591.727 87.8V124.4H595.727V87.8H591.727ZM593.727 122.4H571.977V126.4H593.727V122.4ZM573.977 124.4V107H569.977V124.4H573.977ZM571.977 105H515.277V109H571.977V105ZM513.277 107V124.4H517.277V107H513.277ZM515.277 122.4H493.527V126.4H515.277V122.4ZM495.527 124.4V87.8H491.527V124.4H495.527ZM493.527 89.8H496.827V85.8H493.527V89.8ZM496.867 89.7996C499.78 89.7413 502.351 88.8395 504.465 87.0326C506.549 85.2505 508.052 82.7049 509.078 79.5726L505.277 78.3274C504.403 80.9951 503.231 82.8245 501.865 83.9924C500.528 85.1355 498.875 85.7587 496.787 85.8004L496.867 89.7996ZM509.078 79.5726C511.061 73.5193 512.272 65.0597 512.775 54.2934L508.78 54.1066C508.283 64.7403 507.094 72.7807 505.277 78.3274L509.078 79.5726ZM512.776 54.2752L513.826 26.3752L509.829 26.2248L508.779 54.1248L512.776 54.2752ZM511.827 28.3H582.177V24.3H511.827V28.3ZM580.177 26.3V87.8H584.177V26.3H580.177ZM582.177 89.8H593.727V85.8H582.177V89.8ZM529.929 55.7769C529.631 63.9237 528.987 70.5116 528.013 75.5723L531.941 76.3277C532.968 70.9884 533.624 64.1763 533.926 55.9231L529.929 55.7769ZM528.007 75.6089C527.148 80.5697 525.518 84.0961 523.287 86.4127L526.168 89.1873C529.137 86.1039 531.007 81.7303 531.948 76.2911L528.007 75.6089ZM524.727 89.8H558.777V85.8H524.727V89.8ZM560.777 87.8V45.5H556.777V87.8H560.777ZM558.777 43.5H532.377V47.5H558.777V43.5ZM530.379 45.4131L529.929 55.7631L533.925 55.9369L534.375 45.5869L530.379 45.4131ZM608.453 26.3V24.3H606.453V26.3H608.453ZM631.703 26.3H633.703V24.3H631.703V26.3ZM631.703 57.8H629.703V59.8H631.703V57.8ZM666.803 57.8V59.8H668.803V57.8H666.803ZM666.803 26.3V24.3H664.803V26.3H666.803ZM690.203 26.3H692.203V24.3H690.203V26.3ZM690.203 107V109H692.203V107H690.203ZM666.803 107H664.803V109H666.803V107ZM666.803 76.85H668.803V74.85H666.803V76.85ZM631.703 76.85V74.85H629.703V76.85H631.703ZM631.703 107V109H633.703V107H631.703ZM608.453 107H606.453V109H608.453V107ZM608.453 28.3H631.703V24.3H608.453V28.3ZM629.703 26.3V57.8H633.703V26.3H629.703ZM631.703 59.8H666.803V55.8H631.703V59.8ZM668.803 57.8V26.3H664.803V57.8H668.803ZM666.803 28.3H690.203V24.3H666.803V28.3ZM688.203 26.3V107H692.203V26.3H688.203ZM690.203 105H666.803V109H690.203V105ZM668.803 107V76.85H664.803V107H668.803ZM666.803 74.85H631.703V78.85H666.803V74.85ZM629.703 76.85V107H633.703V76.85H629.703ZM631.703 105H608.453V109H631.703V105ZM610.453 107V26.3H606.453V107H610.453ZM712.604 26.3V24.3H710.604V26.3H712.604ZM735.854 26.3H737.854V24.3H735.854V26.3ZM735.854 74.3H733.854V79.8998L737.401 75.567L735.854 74.3ZM775.154 26.3V24.3H774.206L773.606 25.033L775.154 26.3ZM796.604 26.3H798.604V24.3H796.604V26.3ZM796.604 107V109H798.604V107H796.604ZM773.354 107H771.354V109H773.354V107ZM773.354 59H775.354V53.3836L771.804 57.7359L773.354 59ZM734.203 107V109H735.153L735.753 108.264L734.203 107ZM712.604 107H710.604V109H712.604V107ZM712.604 28.3H735.854V24.3H712.604V28.3ZM733.854 26.3V74.3H737.854V26.3H733.854ZM737.401 75.567L776.701 27.567L773.606 25.033L734.306 73.033L737.401 75.567ZM775.154 28.3H796.604V24.3H775.154V28.3ZM794.604 26.3V107H798.604V26.3H794.604ZM796.604 105H773.354V109H796.604V105ZM775.354 107V59H771.354V107H775.354ZM771.804 57.7359L732.654 105.736L735.753 108.264L774.903 60.2641L771.804 57.7359ZM734.203 105H712.604V109H734.203V105ZM714.604 107V26.3H710.604V107H714.604ZM897.098 73.25V75.25H898.95L899.092 73.4034L897.098 73.25ZM836.048 73.25V71.25H833.56L834.094 73.6797L836.048 73.25ZM843.848 85.1L842.693 86.7328L843.848 85.1ZM870.248 87.65L870.95 89.5227L870.965 89.5169L870.981 89.5108L870.248 87.65ZM879.398 81.65L880.868 80.2941L879.482 78.7908L878.009 80.2103L879.398 81.65ZM891.848 95.15L893.354 96.4658L894.535 95.1138L893.318 93.7941L891.848 95.15ZM834.398 102.95L833.483 104.729L833.493 104.734L833.503 104.739L834.398 102.95ZM818.198 88.1L816.485 89.133L818.198 88.1ZM818.048 45.35L816.328 44.3289L816.323 44.3372L818.048 45.35ZM833.498 30.5L834.446 32.261L834.455 32.2558L833.498 30.5ZM876.998 30.2L877.936 28.4338L876.998 30.2ZM891.998 44.9L890.255 45.8805L890.264 45.8968L890.273 45.9128L891.998 44.9ZM835.748 59.6L833.771 59.2959L833.416 61.6H835.748V59.6ZM875.498 59.6V61.6H877.836L877.474 59.2901L875.498 59.6ZM868.898 47.45L867.593 48.9655L867.605 48.9761L867.617 48.9864L868.898 47.45ZM895.548 66.95C895.548 66.9484 895.544 67.0644 895.523 67.3877C895.505 67.679 895.478 68.0847 895.44 68.6075C895.366 69.652 895.253 71.1477 895.104 73.0966L899.092 73.4034C899.386 69.5775 899.548 67.3514 899.548 66.95H895.548ZM897.098 71.25H836.048V75.25H897.098V71.25ZM834.094 73.6797C835.299 79.1557 838.177 83.5391 842.693 86.7328L845.003 83.4672C841.318 80.8609 838.996 77.3443 838.001 72.8203L834.094 73.6797ZM842.693 86.7328C847.197 89.9191 852.724 91.45 859.148 91.45V87.45C853.371 87.45 848.698 86.0809 845.003 83.4672L842.693 86.7328ZM859.148 91.45C863.534 91.45 867.481 90.8237 870.95 89.5227L869.545 85.7773C866.615 86.8763 863.161 87.45 859.148 87.45V91.45ZM870.981 89.5108C874.547 88.1058 877.816 85.954 880.786 83.0897L878.009 80.2103C875.38 82.746 872.548 84.5942 869.515 85.7892L870.981 89.5108ZM877.927 83.0059L890.377 96.5059L893.318 93.7941L880.868 80.2941L877.927 83.0059ZM890.341 93.8342C883.217 101.99 872.734 106.2 858.548 106.2V110.2C873.561 110.2 885.278 105.71 893.354 96.4658L890.341 93.8342ZM858.548 106.2C849.708 106.2 841.972 104.501 835.292 101.161L833.503 104.739C840.823 108.399 849.188 110.2 858.548 110.2V106.2ZM835.312 101.171C828.618 97.7288 823.505 93.0269 819.91 87.067L816.485 89.133C820.49 95.7731 826.177 100.971 833.483 104.729L835.312 101.171ZM819.91 87.067C816.315 81.1058 814.498 74.3188 814.498 66.65H810.498C810.498 74.9812 812.481 82.4942 816.485 89.133L819.91 87.067ZM814.498 66.65C814.498 59.0762 816.267 52.331 819.772 46.3628L816.323 44.3372C812.428 50.969 810.498 58.4238 810.498 66.65H814.498ZM819.767 46.3711C823.384 40.2804 828.268 35.5874 834.446 32.2609L832.549 28.7391C825.727 32.4126 820.312 37.6196 816.328 44.3289L819.767 46.3711ZM834.455 32.2558C840.739 28.8283 847.756 27.1 855.548 27.1V23.1C847.14 23.1 839.456 24.9717 832.54 28.7442L834.455 32.2558ZM855.548 27.1C863.151 27.1 869.974 28.7333 876.059 31.9662L877.936 28.4338C871.222 24.8667 863.745 23.1 855.548 23.1V27.1ZM876.059 31.9662C882.117 35.1842 886.839 39.8093 890.255 45.8805L893.741 43.9195C889.956 37.1907 884.679 32.0158 877.936 28.4338L876.059 31.9662ZM890.273 45.9128C893.767 51.8622 895.548 58.852 895.548 66.95H899.548C899.548 58.248 897.628 50.5378 893.722 43.8872L890.273 45.9128ZM855.698 40.8C849.995 40.8 845.074 42.4249 841.067 45.7635L843.628 48.8364C846.822 46.1751 850.8 44.8 855.698 44.8V40.8ZM841.067 45.7635C837.046 49.1145 834.635 53.6774 833.771 59.2959L837.724 59.9041C838.46 55.1226 840.449 51.4855 843.628 48.8364L841.067 45.7635ZM835.748 61.6H875.498V57.6H835.748V61.6ZM877.474 59.2901C876.607 53.7629 874.19 49.2568 870.178 45.9136L867.617 48.9864C870.805 51.6432 872.789 55.2371 873.522 59.9099L877.474 59.2901ZM870.203 45.9345C866.204 42.4915 861.328 40.8 855.698 40.8V44.8C860.467 44.8 864.391 46.2085 867.593 48.9655L870.203 45.9345Z" fill="url(#paint0_linear)"/>
<defs>
<linearGradient id="paint0_linear" x1="539.982" y1="-28.4133" x2="527.077" y2="160.257" gradientUnits="userSpaceOnUse">
<stop stop-color="#FF3E6C"/>
<stop offset="1" stop-color="#FFBD3D"/>
</linearGradient>
</defs>
</svg>
