<svg width="108" height="1921" viewBox="0 0 108 1921" fill="none" xmlns="http://www.w3.org/2000/svg">
<path d="M52.9999 30V322" stroke="#414141" stroke-opacity="0.5" stroke-width="2" stroke-linecap="round"/>
<path d="M52.9999 344V636" stroke="#414141" stroke-opacity="0.5" stroke-width="2" stroke-linecap="round"/>
<path d="M52.9999 658V950" stroke="#414141" stroke-opacity="0.5" stroke-width="2" stroke-linecap="round"/>
<path d="M52.9999 972V1264" stroke="#414141" stroke-opacity="0.5" stroke-width="2" stroke-linecap="round"/>
<path d="M52.9999 1600V1892" stroke="#414141" stroke-opacity="0.5" stroke-width="2" stroke-linecap="round"/>
<path d="M52.9999 1286V1578" stroke="#414141" stroke-opacity="0.5" stroke-width="2" stroke-linecap="round"/>
<path d="M16.3799 1892V1893.53L7.58988 1913H5.24988L13.8899 1893.92H3.08988V1897.85H0.959878V1892H16.3799Z" fill="#652E92"/>
<path d="M68 1903C68 1911.28 61.2843 1918 53 1918C44.7157 1918 38 1911.28 38 1903C38 1894.72 44.7157 1888 53 1888C61.2843 1888 68 1894.72 68 1903ZM45.5 1903C45.5 1907.14 48.8579 1910.5 53 1910.5C57.1421 1910.5 60.5 1907.14 60.5 1903C60.5 1898.86 57.1421 1895.5 53 1895.5C48.8579 1895.5 45.5 1898.86 45.5 1903Z" fill="#652E92"/>
<path d="M98.2599 1586.43C99.6399 1586.43 100.86 1586.69 101.92 1587.21C103 1587.73 103.84 1588.47 104.44 1589.43C105.04 1590.37 105.34 1591.47 105.34 1592.73C105.34 1594.01 105.03 1595.14 104.41 1596.12C103.79 1597.1 102.93 1597.86 101.83 1598.4C100.75 1598.92 99.5299 1599.18 98.1699 1599.18C95.3899 1599.18 93.2599 1598.27 91.7799 1596.45C90.2999 1594.61 89.5599 1592.02 89.5599 1588.68C89.5599 1586.34 89.9599 1584.36 90.7599 1582.74C91.5599 1581.12 92.6799 1579.9 94.1199 1579.08C95.5599 1578.24 97.2399 1577.82 99.1599 1577.82C101.24 1577.82 102.9 1578.2 104.14 1578.96L103.27 1580.7C102.27 1580.04 100.91 1579.71 99.1899 1579.71C96.8699 1579.71 95.0499 1580.45 93.7299 1581.93C92.4099 1583.39 91.7499 1585.52 91.7499 1588.32C91.7499 1588.82 91.7799 1589.39 91.8399 1590.03C92.3599 1588.89 93.1899 1588.01 94.3299 1587.39C95.4699 1586.75 96.7799 1586.43 98.2599 1586.43ZM98.0799 1597.35C99.5999 1597.35 100.83 1596.94 101.77 1596.12C102.73 1595.28 103.21 1594.17 103.21 1592.79C103.21 1591.41 102.73 1590.31 101.77 1589.49C100.83 1588.67 99.5499 1588.26 97.9299 1588.26C96.8699 1588.26 95.9299 1588.46 95.1099 1588.86C94.3099 1589.26 93.6799 1589.81 93.2199 1590.51C92.7599 1591.21 92.5299 1591.99 92.5299 1592.85C92.5299 1593.65 92.7399 1594.39 93.1599 1595.07C93.5999 1595.75 94.2399 1596.3 95.0799 1596.72C95.9199 1597.14 96.9199 1597.35 98.0799 1597.35Z" fill="#6C40A5"/>
<path d="M67.9999 1589C67.9999 1597.28 61.2841 1604 52.9999 1604C44.7156 1604 37.9999 1597.28 37.9999 1589C37.9999 1580.72 44.7156 1574 52.9999 1574C61.2841 1574 67.9999 1580.72 67.9999 1589ZM45.4999 1589C45.4999 1593.14 48.8577 1596.5 52.9999 1596.5C57.142 1596.5 60.4999 1593.14 60.4999 1589C60.4999 1584.86 57.142 1581.5 52.9999 1581.5C48.8577 1581.5 45.4999 1584.86 45.4999 1589Z" fill="#6C40A5"/>
<path d="M8.08037 1272.61C11.1204 1272.61 13.3304 1273.16 14.7104 1274.26C16.1104 1275.34 16.8104 1276.86 16.8104 1278.82C16.8104 1280.04 16.5204 1281.13 15.9404 1282.09C15.3804 1283.05 14.5304 1283.81 13.3904 1284.37C12.2504 1284.91 10.8504 1285.18 9.19037 1285.18C7.69037 1285.18 6.26037 1284.94 4.90037 1284.46C3.56037 1283.96 2.48037 1283.3 1.66037 1282.48L2.71037 1280.77C3.41037 1281.49 4.33037 1282.08 5.47037 1282.54C6.61037 1282.98 7.84037 1283.2 9.16037 1283.2C10.9004 1283.2 12.2404 1282.81 13.1804 1282.03C14.1404 1281.25 14.6204 1280.21 14.6204 1278.91C14.6204 1277.47 14.0804 1276.38 13.0004 1275.64C11.9404 1274.9 10.1404 1274.53 7.60037 1274.53H3.13037L4.21037 1264H15.7004V1265.92H6.10037L5.38037 1272.61H8.08037Z" fill="#7352B6"/>
<path d="M68 1275C68 1283.28 61.2843 1290 53 1290C44.7157 1290 38 1283.28 38 1275C38 1266.72 44.7157 1260 53 1260C61.2843 1260 68 1266.72 68 1275ZM45.5 1275C45.5 1279.14 48.8579 1282.5 53 1282.5C57.1421 1282.5 60.5 1279.14 60.5 1275C60.5 1270.86 57.1421 1267.5 53 1267.5C48.8579 1267.5 45.5 1270.86 45.5 1275Z" fill="#7352B6"/>
<path d="M107.41 965.48H103.21V971H101.05V965.48H89.1999V963.92L100.33 950H102.73L91.9899 963.56H101.11V958.7H103.21V963.56H107.41V965.48Z" fill="#7A65C9"/>
<path d="M67.9999 961C67.9999 969.284 61.2841 976 52.9999 976C44.7156 976 37.9999 969.284 37.9999 961C37.9999 952.716 44.7156 946 52.9999 946C61.2841 946 67.9999 952.716 67.9999 961ZM45.4999 961C45.4999 965.142 48.8577 968.5 52.9999 968.5C57.142 968.5 60.4999 965.142 60.4999 961C60.4999 956.858 57.142 953.5 52.9999 953.5C48.8577 953.5 45.4999 956.858 45.4999 961Z" fill="#7A65C9"/>
<path d="M9.69988 645C11.8999 645.12 13.5699 645.72 14.7099 646.8C15.8699 647.86 16.4499 649.25 16.4499 650.97C16.4499 652.17 16.1599 653.24 15.5799 654.18C14.9999 655.1 14.1399 655.83 12.9999 656.37C11.8599 656.91 10.4699 657.18 8.82988 657.18C7.30988 657.18 5.86988 656.94 4.50988 656.46C3.16988 655.96 2.08988 655.3 1.26988 654.48L2.31988 652.77C3.01988 653.49 3.94988 654.08 5.10988 654.54C6.26988 654.98 7.50988 655.2 8.82988 655.2C10.5499 655.2 11.8799 654.83 12.8199 654.09C13.7599 653.33 14.2299 652.29 14.2299 650.97C14.2299 649.67 13.7599 648.65 12.8199 647.91C11.8799 647.17 10.4599 646.8 8.55988 646.8H7.05988V645.21L12.8799 637.92H2.13988V636H15.6399V637.53L9.69988 645Z" fill="#7F6FD3"/>
<path d="M67.9999 647C67.9999 655.284 61.2841 662 52.9999 662C44.7156 662 37.9999 655.284 37.9999 647C37.9999 638.716 44.7156 632 52.9999 632C61.2841 632 67.9999 638.716 67.9999 647ZM45.4999 647C45.4999 651.142 48.8577 654.5 52.9999 654.5C57.142 654.5 60.4999 651.142 60.4999 647C60.4999 642.858 57.142 639.5 52.9999 639.5C48.8577 639.5 45.4999 642.858 45.4999 647Z" fill="#8177DB"/>
<path d="M103.9 341.08V343H89.1699V341.47L97.8999 332.92C98.9999 331.84 99.7399 330.91 100.12 330.13C100.52 329.33 100.72 328.53 100.72 327.73C100.72 326.49 100.29 325.53 99.4299 324.85C98.5899 324.15 97.3799 323.8 95.7999 323.8C93.3399 323.8 91.4299 324.58 90.0699 326.14L88.5399 324.82C89.3599 323.86 90.3999 323.12 91.6599 322.6C92.9399 322.08 94.3799 321.82 95.9799 321.82C98.1199 321.82 99.8099 322.33 101.05 323.35C102.31 324.35 102.94 325.73 102.94 327.49C102.94 328.57 102.7 329.61 102.22 330.61C101.74 331.61 100.83 332.76 99.4899 334.06L92.3499 341.08H103.9Z" fill="#8888EC"/>
<path d="M67.9999 333C67.9999 341.284 61.2841 348 52.9999 348C44.7156 348 37.9999 341.284 37.9999 333C37.9999 324.716 44.7156 318 52.9999 318C61.2841 318 67.9999 324.716 67.9999 333ZM45.4999 333C45.4999 337.142 48.8577 340.5 52.9999 340.5C57.142 340.5 60.4999 337.142 60.4999 333C60.4999 328.858 57.142 325.5 52.9999 325.5C48.8577 325.5 45.4999 328.858 45.4999 333Z" fill="#8888EC"/>
<path d="M14.3799 8V29H12.2199V9.92H7.26988V8H14.3799Z" fill="#909BFF"/>
<path d="M67.9999 19C67.9999 27.2843 61.2841 34 52.9999 34C44.7156 34 37.9999 27.2843 37.9999 19C37.9999 10.7157 44.7156 4 52.9999 4C61.2841 4 67.9999 10.7157 67.9999 19ZM45.4999 19C45.4999 23.1421 48.8577 26.5 52.9999 26.5C57.142 26.5 60.4999 23.1421 60.4999 19C60.4999 14.8579 57.142 11.5 52.9999 11.5C48.8577 11.5 45.4999 14.8579 45.4999 19Z" fill="#909BFF"/>
</svg>
