<svg width="30" height="30" viewBox="0 0 30 30" fill="none" xmlns="http://www.w3.org/2000/svg">
<g clip-path="url(#clip0)">
<path d="M18.9458 12.2829C18.9458 14.4631 17.1955 16.2133 15.0154 16.2133C12.8352 16.2133 11.085 14.4631 11.085 12.2829C11.085 10.1335 12.8352 8.35254 15.0154 8.35254C17.1648 8.35254 18.9458 10.1335 18.9458 12.2829Z" fill="white" fill-opacity="0.7"/>
<path d="M15.0153 0C6.72467 0 0 6.72467 0 15.0153C0 23.306 6.72467 30.0307 15.0153 30.0307C23.306 30.0307 30.0307 23.306 30.0307 15.0153C30 6.72467 23.2753 0 15.0153 0ZM21.8935 15.3838C19.9898 19.5292 16.3664 23.8895 15.3224 25.1484C15.2303 25.2405 15.1382 25.3019 15.0153 25.3019C14.8925 25.3019 14.7697 25.2405 14.7083 25.1484C13.6336 23.9202 10.0102 19.5292 8.10645 15.3838C7.67656 14.4319 7.43091 13.3879 7.43091 12.2825C7.43091 8.10645 10.8393 4.72876 14.9846 4.72876C19.1607 4.72876 22.5384 8.13715 22.5384 12.2825C22.5691 13.3879 22.3541 14.4319 21.8935 15.3838Z" fill="white" fill-opacity="0.7"/>
</g>
<defs>
<clipPath id="clip0">
<rect width="30" height="30" fill="white"/>
</clipPath>
</defs>
</svg>
