<svg width="170" height="23" viewBox="0 0 170 23" fill="none" xmlns="http://www.w3.org/2000/svg">
<path d="M16.1082 17.0488L17.81 18.7089C18.0396 18.9329 18.0273 19.2968 17.7836 19.5063C15.9075 21.1215 13.4314 22.1046 10.6939 22.1046C4.81327 22.1046 0 17.9921 0 11.5307C0 5.33313 4.44809 0.956818 10.6939 0.956818C13.4332 0.956818 15.9111 1.94083 17.7871 3.58142C18.0291 3.79264 18.0388 4.15571 17.8082 4.37881L16.1082 6.0177C15.897 6.22129 15.5591 6.23147 15.3321 6.04315C14.0896 5.01502 12.4538 4.39323 10.6939 4.39323C6.30652 4.39323 3.62535 7.38938 3.62535 11.5307C3.62535 15.9367 6.76321 18.6682 10.6939 18.6682C12.452 18.6682 14.0869 18.0473 15.3294 17.0208C15.5573 16.8325 15.897 16.8427 16.1082 17.0488Z" fill="#642D91"/>
<path d="M21.0253 9.3089C20.6672 4.65944 24.6973 0.77428 29.5211 1.11869C33.4087 1.39692 36.5369 4.41174 36.8246 8.15947C37.1828 12.8089 33.1526 16.6941 28.3297 16.3488C24.4413 16.0715 21.314 13.0566 21.0253 9.3089ZM35.3331 21.9518H22.3338C22.0364 21.9518 21.7953 21.7194 21.7953 21.4326V19.0634C21.7953 18.7766 22.0364 18.5442 22.3338 18.5442H35.334C35.6314 18.5442 35.8725 18.7766 35.8725 19.0634V21.4326C35.8717 21.7194 35.6306 21.9518 35.3331 21.9518ZM24.6489 7.75569C23.9423 10.8714 26.708 13.5368 29.94 12.8564C31.5652 12.5137 32.8464 11.2786 33.2019 9.71184C33.9085 6.59608 31.1429 3.93076 27.9109 4.61109C26.2847 4.95379 25.0035 6.1889 24.6489 7.75569Z" fill="#642D91"/>
<path d="M44.1941 1.25115C49.3735 1.25115 56.6558 2.39634 56.6558 11.5316C56.6558 20.3139 49.4958 21.8119 44.1941 21.8119H41.3484C40.9516 21.8119 40.6295 21.5015 40.6295 21.1189V1.94336C40.6295 1.56078 40.9516 1.25031 41.3484 1.25031H44.1941V1.25115ZM53.0604 11.5307C53.0604 4.70284 46.9492 4.43393 44.8735 4.53996C44.4916 4.55948 44.1941 4.86401 44.1941 5.23217V17.8208C44.1941 18.1923 44.4977 18.4985 44.8831 18.513C46.966 18.5935 53.0604 18.2517 53.0604 11.5307Z" fill="#642D91"/>
<path d="M65.068 4.81138V18.2508C65.068 18.4815 65.2625 18.669 65.5019 18.669H67.1333C67.3726 18.669 67.5671 18.8565 67.5671 19.0872V21.3945C67.5671 21.6253 67.3726 21.8128 67.1333 21.8128H59.4382C59.1989 21.8128 59.0044 21.6253 59.0044 21.3945V19.0872C59.0044 18.8565 59.1989 18.669 59.4382 18.669H61.0696C61.309 18.669 61.5034 18.4815 61.5034 18.2508V4.81138C61.5034 4.58064 61.309 4.39317 61.0696 4.39317H59.5596C59.3203 4.39317 59.1258 4.2057 59.1258 3.97497V1.66763C59.1258 1.43689 59.3203 1.24942 59.5596 1.24942H67.011C67.2503 1.24942 67.4448 1.43689 67.4448 1.66763V3.97497C67.4448 4.2057 67.2503 4.39317 67.011 4.39317H65.501C65.2625 4.39317 65.068 4.58064 65.068 4.81138Z" fill="#642D91"/>
<path d="M74.4034 5.30088V9.21318C74.4034 9.5525 74.6885 9.82734 75.0405 9.82734H82.6335C82.9854 9.82734 83.2705 10.1022 83.2705 10.4415V12.6208C83.2705 12.9601 82.9854 13.2349 82.6335 13.2349H75.0405C74.6885 13.2349 74.4034 13.5098 74.4034 13.8491V21.1978C74.4034 21.5371 74.1183 21.8119 73.7663 21.8119H71.475C71.123 21.8119 70.8379 21.5371 70.8379 21.1978V1.86447C70.8379 1.52515 71.123 1.25031 71.475 1.25031H84.4303C84.7823 1.25031 85.0674 1.52515 85.0674 1.86447V4.07341C85.0674 4.41272 84.7823 4.68757 84.4303 4.68757H75.0396C74.6885 4.68757 74.4034 4.96241 74.4034 5.30088Z" fill="#642D91"/>
<path d="M105.046 1.9111L97.6012 11.9803C97.5493 12.0507 97.5212 12.1355 97.5212 12.2229V21.3937C97.5212 21.6244 97.3267 21.8119 97.0873 21.8119H94.3894C94.1501 21.8119 93.9556 21.6244 93.9556 21.3937V12.2229C93.9556 12.1364 93.9275 12.0515 93.8756 11.9803L86.4313 1.9111C86.2271 1.63455 86.4321 1.25113 86.7841 1.25113H90.0769C90.2168 1.25113 90.3479 1.31645 90.4288 1.42588L95.3996 8.11886C95.573 8.35214 95.9329 8.35129 96.1053 8.11802L101.047 1.42672C101.128 1.31645 101.26 1.25113 101.4 1.25113H104.693C105.045 1.25113 105.25 1.63455 105.046 1.9111Z" fill="#642D91"/>
<path d="M135.367 19.0932V21.0926C135.367 21.4896 135.033 21.8111 134.621 21.8111H124.656C124.244 21.8111 123.911 21.4896 123.911 21.0926V1.9688C123.911 1.57181 124.244 1.25031 124.656 1.25031H126.73C127.142 1.25031 127.475 1.57181 127.475 1.9688V17.6562C127.475 18.0532 127.809 18.3747 128.221 18.3747H134.621C135.032 18.3747 135.367 18.6962 135.367 19.0932Z" fill="#642D91"/>
<path d="M148.715 19.4332H141.82C141.639 19.4332 141.477 19.5418 141.414 19.7055L140.963 20.8787C140.747 21.4394 140.192 21.8118 139.572 21.8118H137.398C137.094 21.8118 136.884 21.5166 136.994 21.2435L145.026 1.26377C145.111 1.0517 145.423 1.05085 145.509 1.26377L153.568 21.2435C153.679 21.5175 153.469 21.8127 153.164 21.8127H150.979C150.364 21.8127 149.813 21.4471 149.593 20.894L149.12 19.7021C149.056 19.5393 148.895 19.4332 148.715 19.4332ZM142.938 16.4659H147.592C147.721 16.4659 147.811 16.3438 147.768 16.2267L145.442 9.81366C145.384 9.65334 145.148 9.65334 145.09 9.81366L142.763 16.2267C142.72 16.3438 142.81 16.4659 142.938 16.4659Z" fill="#642D91"/>
<path d="M169.999 15.9079C169.999 21.5473 164.027 21.812 162.595 21.812H155.93C155.691 21.812 155.496 21.6245 155.496 21.3938V1.66853C155.496 1.4378 155.69 1.25033 155.93 1.25033H162.595C162.595 1.25033 169.695 1.10357 169.695 7.0365C169.695 9.54488 168.198 10.914 166.522 11.4501C166.42 11.4832 166.425 11.6232 166.529 11.6503C170.141 12.5928 169.999 15.9079 169.999 15.9079ZM159.031 9.41C159.031 9.64074 159.224 9.82821 159.465 9.82821H162.596C162.596 9.82821 166.131 9.82821 166.131 7.27317C166.131 4.51199 162.596 4.65875 162.596 4.65875H159.465C159.225 4.65875 159.031 4.84622 159.031 5.07695V9.41ZM166.435 15.8197C166.435 13.0585 162.595 13.2646 162.595 13.2646H159.464C159.224 13.2646 159.03 13.4521 159.03 13.6828V17.987C159.03 18.2178 159.224 18.4052 159.464 18.4052H162.595C164.089 18.4044 166.435 18.0515 166.435 15.8197Z" fill="#642D91"/>
</svg>
