<svg width="30" height="30" viewBox="0 0 30 30" fill="none" xmlns="http://www.w3.org/2000/svg">
<path d="M10.2891 15.0058L5.85938 19.4121V10.5938L10.2891 15.0058Z" fill="white" fill-opacity="0.7"/>
<path d="M18.1816 16.5234L22.6113 20.9238H7.38867L11.8184 16.5234L12.4453 17.1445C13.1309 17.8301 14.0391 18.2051 15.0059 18.2051C15.9727 18.2051 16.8809 17.8301 17.5664 17.1445L18.1816 16.5234Z" fill="white" fill-opacity="0.7"/>
<path d="M13.957 15.6211L7.38281 9.08203H22.6172L21.8203 9.87305C19.7109 11.9707 16.207 15.457 16.0371 15.627C15.7617 15.9023 15.3926 16.0547 15 16.0547C14.6074 16.0547 14.2383 15.8965 13.957 15.6211Z" fill="white" fill-opacity="0.7"/>
<path d="M19.7109 15.0058L24.1406 10.5938V19.4121L19.7109 15.0058Z" fill="white" fill-opacity="0.7"/>
<path d="M15 0C6.71484 0 0 6.71484 0 15C0 23.2852 6.71484 30 15 30C23.2852 30 30 23.2852 30 15C30 6.71484 23.2852 0 15 0ZM23.9473 23.0742H6.05273C4.75781 23.0742 3.70312 22.0195 3.70312 20.7246V9.27539C3.70312 7.98047 4.75781 6.92578 6.05273 6.92578H23.9473C25.2422 6.92578 26.2969 7.98047 26.2969 9.27539V20.7246C26.2969 22.0195 25.2422 23.0742 23.9473 23.0742Z" fill="white" fill-opacity="0.7"/>
</svg>
