<svg width="200" height="183" viewBox="0 0 200 183" fill="none" xmlns="http://www.w3.org/2000/svg">
<path d="M7.94403 43.8594C-1.41807 58.7161 -2.40478 84.4394 4.45302 100.52C10.4597 114.604 22.4085 127.825 38.0936 129.481C43.8616 130.09 49.7569 129.095 55.4655 130.098C75.0971 133.55 82.3998 156.906 97.6568 169.321C108.275 177.962 123.008 181.019 136.787 179.355C150.567 177.69 163.468 171.676 174.825 163.96C183.792 157.868 192.183 150.377 196.608 140.691C205.883 120.389 194.971 96.0052 178.019 81.0203C172.739 76.3531 166.854 72.2363 162.443 66.7938C158.031 61.3508 155.224 54.0877 157.326 47.4814C159.003 42.2108 163.517 38.125 165.227 32.8642C167.554 25.7055 164.042 17.6745 158.273 12.646C152.505 7.61748 144.872 5.08945 137.31 3.35445C105.629 -3.91626 36.2073 -0.991533 7.94403 43.8594Z" fill="url(#paint0_linear)"/>
<path opacity="0.1" d="M136.809 182.187H63.1905C56.7182 182.187 51.4717 177.122 51.4717 170.874V27.3237C51.4717 21.0757 56.7182 16.011 63.1905 16.011H136.809C143.281 16.011 148.528 21.0757 148.528 27.3237V170.874C148.528 177.122 143.281 182.187 136.809 182.187Z" fill="#2626BC"/>
<path d="M136.809 173.136H63.1905C56.7182 173.136 51.4717 168.071 51.4717 161.823V18.2729C51.4717 12.0249 56.7182 6.96021 63.1905 6.96021H136.809C143.281 6.96021 148.528 12.0249 148.528 18.2729V161.823C148.528 168.071 143.281 173.136 136.809 173.136Z" fill="#6583FE"/>
<path d="M51.4725 23.1411H148.527V156.956H51.4725V23.1411Z" fill="white"/>
<path d="M136.809 175.022H63.1905C55.6518 175.022 49.5186 169.102 49.5186 161.824V18.2734C49.5186 10.9959 55.6518 5.0752 63.1905 5.0752H136.81C144.348 5.0752 150.481 10.9959 150.481 18.2734V161.824C150.481 169.102 144.348 175.022 136.809 175.022ZM63.1905 8.84611C57.8057 8.84611 53.4249 13.0752 53.4249 18.2734V161.824C53.4249 167.022 57.8057 171.251 63.1905 171.251H136.81C142.194 171.251 146.575 167.022 146.575 161.824V18.2734C146.575 13.0752 142.194 8.84611 136.81 8.84611H63.1905Z" fill="#2626BC"/>
<path d="M106.829 17.2815H93.1705C92.092 17.2815 91.2174 16.4373 91.2174 15.3964C91.2174 14.3554 92.092 13.5112 93.1705 13.5112H106.829C107.908 13.5112 108.782 14.3554 108.782 15.3964C108.782 16.4373 107.908 17.2815 106.829 17.2815Z" fill="#B7C5FF"/>
<path d="M115.942 17.281C117.021 17.281 117.896 16.4367 117.896 15.3951C117.896 14.3536 117.021 13.5093 115.942 13.5093C114.863 13.5093 113.988 14.3536 113.988 15.3951C113.988 16.4367 114.863 17.281 115.942 17.281Z" fill="#B7C5FF"/>
<path d="M137.285 35.9099V67.9251C137.285 70.0067 135.535 71.696 133.379 71.696H66.6209C64.4647 71.696 62.7147 70.0067 62.7147 67.9251V35.9099C62.7147 33.8283 64.4647 32.1389 66.6209 32.1389H133.379C135.535 32.1389 137.285 33.8283 137.285 35.9099Z" fill="#9FB0FE"/>
<path d="M137.285 43.0896V67.9247C137.285 70.0062 135.535 71.6956 133.379 71.6956H85.7694C85.6248 70.5115 85.5506 69.3048 85.5506 68.0831C85.5506 50.8388 100.031 36.8601 117.898 36.8601C125.168 36.8601 131.883 39.1792 137.285 43.0896Z" fill="#8399FE"/>
<path d="M137.285 141.99V156.956H62.7147V141.99C62.7147 139.908 64.4647 138.219 66.6209 138.219H133.379C135.535 138.219 137.285 139.908 137.285 141.99Z" fill="#02FFB3"/>
<path d="M93.3826 147.589C93.3826 150.96 92.5467 154.143 91.0662 156.956H62.7147V141.99C62.7147 139.908 64.4647 138.219 66.6209 138.219H91.0662C92.5467 141.036 93.3826 144.218 93.3826 147.589Z" fill="#97FFD2"/>
<path d="M95.4272 99.3679H64.6686C63.5901 99.3679 62.7155 98.5236 62.7155 97.4824V82.497C62.7155 81.4559 63.5901 80.6116 64.6686 80.6116H95.4272C96.5057 80.6116 97.3803 81.4559 97.3803 82.497V97.4824C97.3803 98.524 96.5057 99.3679 95.4272 99.3679Z" fill="#FF7EB8"/>
<path d="M135.331 99.3674H104.573C103.494 99.3674 102.62 98.5231 102.62 97.482V82.4968C102.62 81.4556 103.494 80.6113 104.573 80.6113H135.331C136.41 80.6113 137.285 81.4556 137.285 82.4968V97.482C137.285 98.5235 136.41 99.3674 135.331 99.3674Z" fill="#02FFB3"/>
<path d="M95.4271 122.515H64.6686C63.5901 122.515 62.7155 121.671 62.7155 120.63V105.645C62.7155 104.604 63.5901 103.759 64.6686 103.759H95.4271C96.5056 103.759 97.3802 104.604 97.3802 105.645V120.63C97.3802 121.671 96.5056 122.515 95.4271 122.515Z" fill="#8399FE"/>
<path d="M135.331 122.515H104.573C103.494 122.515 102.62 121.671 102.62 120.629V105.644C102.62 104.603 103.494 103.759 104.573 103.759H135.331C136.41 103.759 137.285 104.603 137.285 105.644V120.629C137.285 121.671 136.41 122.515 135.331 122.515Z" fill="#FFC4DF"/>
<path d="M98.3076 54.2856H72.651C71.5725 54.2856 70.6979 55.1299 70.6979 56.1709C70.6979 57.2119 71.5725 58.0562 72.651 58.0562H98.3076C99.3861 58.0562 100.261 57.2119 100.261 56.1709C100.261 55.1299 99.3865 54.2856 98.3076 54.2856Z" fill="white"/>
<path d="M98.3076 46.9583H72.651C71.5725 46.9583 70.6979 47.8025 70.6979 48.8436C70.6979 49.8847 71.5725 50.729 72.651 50.729H98.3076C99.3861 50.729 100.261 49.8847 100.261 48.8436C100.261 47.8025 99.3865 46.9583 98.3076 46.9583Z" fill="white"/>
<path d="M77.2139 38.1562H72.651C71.5725 38.1562 70.6979 39.0005 70.6979 40.0415C70.6979 41.0825 71.5725 41.9268 72.651 41.9268H77.2139C78.2924 41.9268 79.1671 41.0825 79.1671 40.0415C79.1671 39.0005 78.2928 38.1562 77.2139 38.1562Z" fill="#FFC4DF"/>
<path d="M80.9498 130.513H64.6682C63.5897 130.513 62.7151 131.357 62.7151 132.398C62.7151 133.439 63.5897 134.283 64.6682 134.283H80.9498C82.0283 134.283 82.903 133.439 82.903 132.398C82.903 131.357 82.0283 130.513 80.9498 130.513Z" fill="#8399FE"/>
<path d="M137.285 141.99V151.262C129.883 151.262 123.879 145.47 123.879 138.324V138.219H133.379C135.535 138.219 137.285 139.908 137.285 141.99Z" fill="#01ECA5"/>
<path d="M164.728 57.843C161.65 57.843 159.146 55.4257 159.146 52.4541C159.146 49.4825 161.65 47.0652 164.728 47.0652C167.807 47.0652 170.311 49.4825 170.311 52.4541C170.311 55.4257 167.807 57.843 164.728 57.843ZM164.728 50.8361C163.804 50.8361 163.052 51.562 163.052 52.4545C163.052 53.347 163.804 54.0728 164.728 54.0728C165.652 54.0728 166.405 53.347 166.405 52.4545C166.405 51.562 165.652 50.8361 164.728 50.8361Z" fill="#FF5BA8"/>
<path d="M168.358 73.9719C165.279 73.9719 162.775 71.5547 162.775 68.5831C162.775 65.6116 165.279 63.1943 168.358 63.1943C171.436 63.1943 173.94 65.6116 173.94 68.5831C173.94 71.5547 171.436 73.9719 168.358 73.9719ZM168.358 66.9652C167.434 66.9652 166.681 67.691 166.681 68.5835C166.681 69.476 167.434 70.2018 168.358 70.2018C169.282 70.2018 170.034 69.476 170.034 68.5835C170.034 67.691 169.282 66.9652 168.358 66.9652Z" fill="#6583FE"/>
<path d="M32.4245 41.2021C31.3456 41.2021 30.4714 40.3578 30.4714 39.3167C30.4714 38.0689 29.4202 37.0542 28.1276 37.0542C27.0487 37.0542 26.1745 36.2098 26.1745 35.1687C26.1745 34.1276 27.0487 33.2832 28.1276 33.2832C29.4202 33.2832 30.4714 32.2685 30.4714 31.0207C30.4714 29.9796 31.3456 29.1353 32.4245 29.1353C33.5034 29.1353 34.3776 29.9796 34.3776 31.0207C34.3776 32.2685 35.4288 33.2832 36.7214 33.2832C37.8003 33.2832 38.6745 34.1276 38.6745 35.1687C38.6745 36.2098 37.8003 37.0542 36.7214 37.0542C35.4288 37.0542 34.3776 38.0689 34.3776 39.3167C34.3776 40.3578 33.5034 41.2021 32.4245 41.2021Z" fill="#01ECA5"/>
<path d="M34.2799 152.155C33.201 152.155 32.3268 151.311 32.3268 150.27C32.3268 149.022 31.2757 148.007 29.9831 148.007C28.9042 148.007 28.03 147.163 28.03 146.122C28.03 145.081 28.9042 144.236 29.9831 144.236C31.2757 144.236 32.3268 143.222 32.3268 141.974C32.3268 140.933 33.201 140.088 34.2799 140.088C35.3588 140.088 36.2331 140.933 36.2331 141.974C36.2331 143.222 37.2842 144.236 38.5768 144.236C39.6557 144.236 40.5299 145.081 40.5299 146.122C40.5299 147.163 39.6557 148.007 38.5768 148.007C37.2842 148.007 36.2331 149.022 36.2331 150.27C36.2331 151.311 35.3588 152.155 34.2799 152.155Z" fill="#01ECA5"/>
<path d="M28.1276 134.071C27.0487 134.071 26.1745 133.227 26.1745 132.186C26.1745 130.938 25.1233 129.923 23.8307 129.923C22.7518 129.923 21.8776 129.079 21.8776 128.038C21.8776 126.997 22.7518 126.152 23.8307 126.152C25.1233 126.152 26.1745 125.137 26.1745 123.89C26.1745 122.849 27.0487 122.004 28.1276 122.004C29.2065 122.004 30.0807 122.849 30.0807 123.89C30.0807 125.138 31.1319 126.152 32.4245 126.152C33.5034 126.152 34.3776 126.997 34.3776 128.038C34.3776 129.079 33.5034 129.923 32.4245 129.923C31.1319 129.923 30.0807 130.938 30.0807 132.186C30.0807 133.227 29.2065 134.071 28.1276 134.071Z" fill="#FF5BA8"/>
<defs>
<linearGradient id="paint0_linear" x1="-9.88141e-05" y1="90.0487" x2="200" y2="90.0487" gradientUnits="userSpaceOnUse">
<stop stop-color="#FFDBED" stop-opacity="0"/>
<stop offset="1" stop-color="#FFDBED"/>
</linearGradient>
</defs>
</svg>
