<svg width="30" height="30" viewBox="0 0 30 30" fill="none" xmlns="http://www.w3.org/2000/svg">
<g clip-path="url(#clip0)">
<path d="M25.363 4.26304C19.4778 -1.42102 10.1476 -1.42102 4.2624 4.26304C-1.56438 10.296 -1.39727 19.9101 4.63566 25.7369C10.5208 31.421 19.8511 31.421 25.7363 25.7369C31.563 19.704 31.3959 10.0898 25.363 4.26304ZM25.0225 25.0231L25.0174 25.0181C19.4796 30.5509 10.505 30.5468 4.97214 25.0089C-0.560705 19.4711 -0.556611 10.4966 4.98128 4.9637C10.5192 -0.569142 19.4937 -0.565048 25.0266 4.97278C27.6842 7.63281 29.176 11.2398 29.1735 15C29.1738 18.7593 27.6806 22.3648 25.0225 25.0231Z" fill="white" fill-opacity="0.7"/>
<path d="M23.5298 19.3226L20.6849 16.4878C20.0392 15.8405 18.9911 15.8393 18.3439 16.485C18.3429 16.4859 18.342 16.4868 18.3411 16.4878L16.7111 18.1178C16.5877 18.2414 16.3934 18.2585 16.2504 18.1583C15.3583 17.5348 14.5231 16.8334 13.7548 16.0625C13.0666 15.3759 12.4336 14.6363 11.8615 13.8503C11.7578 13.7091 11.7729 13.5134 11.8969 13.3897L13.5674 11.7192C14.2124 11.073 14.2124 10.0266 13.5674 9.38042L10.7225 6.53549C10.0669 5.90874 9.0343 5.90874 8.37873 6.53549L7.47768 7.43654C6.11687 8.78204 5.63108 10.7799 6.22223 12.6C6.66335 13.9316 7.28689 15.1956 8.075 16.3561C8.78449 17.42 9.59846 18.4103 10.5049 19.3125C11.4903 20.3049 12.5818 21.1859 13.7598 21.9397C15.0548 22.7848 16.4767 23.4171 17.9716 23.8127C18.3558 23.9075 18.7502 23.955 19.146 23.9545C20.5027 23.9462 21.8008 23.4 22.7553 22.4358L23.5299 21.6613C24.1747 21.0151 24.1747 19.9688 23.5298 19.3226ZM22.8129 20.9709C22.8123 20.9715 22.8116 20.9722 22.8109 20.9729L22.816 20.9577L22.0414 21.7322C21.0463 22.7399 19.597 23.1545 18.2195 22.8257C16.8316 22.4542 15.5123 21.8629 14.3115 21.0742C13.1958 20.3612 12.162 19.5277 11.2286 18.5886C10.3698 17.7361 9.59822 16.8 8.92527 15.7943C8.18919 14.7121 7.60658 13.5332 7.19399 12.2912C6.72102 10.8321 7.11296 9.23105 8.20645 8.15541L9.10751 7.25436C9.35803 7.00271 9.7651 7.00182 10.0167 7.25234C10.0173 7.253 10.018 7.25365 10.0187 7.25436L12.8636 10.0993C13.1153 10.3498 13.1162 10.7569 12.8657 11.0085C12.865 11.0091 12.8643 11.0098 12.8636 11.0105L11.1931 12.681C10.7138 13.1551 10.6535 13.9085 11.0514 14.4528C11.6556 15.282 12.3242 16.0623 13.051 16.7865C13.8613 17.6003 14.7421 18.3406 15.6833 18.9987C16.2271 19.378 16.9644 19.3141 17.4348 18.8468L19.0496 17.2067C19.3001 16.955 19.7072 16.9541 19.9588 17.2047C19.9595 17.2053 19.9601 17.206 19.9608 17.2067L22.8109 20.0618C23.0626 20.3122 23.0635 20.7192 22.8129 20.9709Z" fill="white" fill-opacity="0.7"/>
</g>
<defs>
<clipPath id="clip0">
<rect width="30" height="30" fill="white"/>
</clipPath>
</defs>
</svg>
