<svg width="33" height="33" viewBox="0 0 33 33" fill="none" xmlns="http://www.w3.org/2000/svg">
<g clip-path="url(#clip0)">
<path d="M32.2261 0.775612C31.9609 0.510363 31.563 0.4288 31.215 0.56805L1.09002 12.6179C0.745328 12.7558 0.514516 13.084 0.501266 13.4551C0.488079 13.8261 0.695078 14.1699 1.02908 14.3319L12.9083 20.0932L18.6697 31.9724C18.8268 32.2964 19.1549 32.5009 19.513 32.5009C19.5241 32.5009 19.5353 32.5007 19.5465 32.5002C19.9174 32.4871 20.2458 32.2562 20.3836 31.9116L32.4336 1.78674C32.5728 1.43849 32.4913 1.0408 32.2261 0.775612ZM3.75651 13.5708L27.6706 4.00523L13.4188 18.2569L3.75651 13.5708ZM19.4308 29.2451L14.7446 19.5826L28.9965 5.33098L19.4308 29.2451Z" fill="white"/>
</g>
<defs>
<clipPath id="clip0">
<rect width="32" height="32" fill="white" transform="translate(0.5 0.5)"/>
</clipPath>
</defs>
</svg>
