<svg width="200" height="177" viewBox="0 0 200 177" fill="none" xmlns="http://www.w3.org/2000/svg">
<path d="M6.27894 106.917C13.5942 131.054 34.6801 180.292 70.311 175.872C106.048 171.439 92.0915 126.95 124.806 120.852C139.208 118.167 148.969 142.231 163.402 141.482C181.992 140.518 191.453 122.753 196.648 107.818C207.662 76.1519 191.168 22.4554 152.562 13.1554C118.873 5.04009 114.932 44.7793 85.6395 33.2366C69.1751 26.7489 70.82 7.37488 50.7676 3.4656C-9.89568 -8.36067 -3.45505 74.7992 6.27894 106.917Z" fill="url(#paint0_linear)"/>
<path opacity="0.1" d="M177.918 163.204H22.082C18.8461 163.204 16.2227 160.672 16.2227 157.547V39.0299C16.2227 35.9058 18.8461 33.373 22.082 33.373H177.918C181.154 33.373 183.777 35.9058 183.777 39.0299V157.547C183.777 160.672 181.154 163.204 177.918 163.204Z" fill="#2626BC"/>
<path d="M177.918 154.153H22.082C18.8461 154.153 16.2227 151.62 16.2227 148.496V29.9782C16.2227 26.8541 18.8461 24.3213 22.082 24.3213H177.918C181.154 24.3213 183.777 26.8541 183.777 29.9782V148.496C183.777 151.62 181.154 154.153 177.918 154.153Z" fill="white"/>
<path d="M16.2227 81.9282H183.778V108.687H16.2227V81.9282Z" fill="#6583FE"/>
<path d="M183.777 50.4609V29.9782C183.777 26.8541 181.154 24.3213 177.918 24.3213H22.082C18.8461 24.3213 16.2227 26.8541 16.2227 29.9782V50.4609H183.777Z" fill="#6583FE"/>
<path d="M177.918 156.039H22.0817C17.7739 156.039 14.2692 152.655 14.2692 148.496V29.9785C14.2692 25.8196 17.7739 22.436 22.0817 22.436H177.918C182.226 22.436 185.731 25.8196 185.731 29.9785V148.496C185.731 152.655 182.226 156.039 177.918 156.039ZM22.0817 26.2073C19.9278 26.2073 18.1754 27.8991 18.1754 29.9785V148.496C18.1754 150.576 19.9278 152.268 22.0817 152.268H177.918C180.072 152.268 181.824 150.576 181.824 148.496V29.9785C181.824 27.8991 180.072 26.2073 177.918 26.2073H22.0817Z" fill="#2626BC"/>
<path d="M33.4465 42.3484C35.7983 42.3484 37.7047 40.508 37.7047 38.2378C37.7047 35.9676 35.7983 34.1272 33.4465 34.1272C31.0948 34.1272 29.1884 35.9676 29.1884 38.2378C29.1884 40.508 31.0948 42.3484 33.4465 42.3484Z" fill="white"/>
<path d="M47.0408 42.3484C49.3925 42.3484 51.299 40.508 51.299 38.2378C51.299 35.9676 49.3925 34.1272 47.0408 34.1272C44.689 34.1272 42.7825 35.9676 42.7825 38.2378C42.7825 40.508 44.689 42.3484 47.0408 42.3484Z" fill="white"/>
<path d="M60.6345 42.3484C62.9863 42.3484 64.8928 40.508 64.8928 38.2378C64.8928 35.9676 62.9863 34.1272 60.6345 34.1272C58.2828 34.1272 56.3763 35.9676 56.3763 38.2378C56.3763 40.508 58.2828 42.3484 60.6345 42.3484Z" fill="white"/>
<path d="M168.859 42.8564H115.672V33.6191H168.859C169.937 33.6191 170.812 34.4635 170.812 35.5046V40.971C170.812 42.0121 169.937 42.8564 168.859 42.8564Z" fill="white"/>
<path d="M115.933 33.7366C113.869 31.7431 110.509 31.7431 108.444 33.7366C106.379 35.7301 106.379 38.9738 108.444 40.9674C110.021 42.4899 112.351 42.8455 114.285 42.043L115.983 43.6827C116.746 44.4189 117.983 44.4189 118.745 43.6827C119.508 42.9466 119.508 41.7522 118.745 41.016L117.047 39.3763C117.879 37.5091 117.51 35.2587 115.933 33.7366ZM111.206 36.4033C111.748 35.8802 112.629 35.8802 113.171 36.4033C113.713 36.9264 113.713 37.7776 113.171 38.3007C112.629 38.8238 111.748 38.8238 111.206 38.3007C110.664 37.7772 110.664 36.9264 111.206 36.4033Z" fill="#2626BC"/>
<path d="M74.7832 119.874H51.4703C50.3918 119.874 49.5172 119.03 49.5172 117.989C49.5172 116.948 50.3918 116.103 51.4703 116.103H74.7832C75.8617 116.103 76.7363 116.948 76.7363 117.989C76.7363 119.03 75.8617 119.874 74.7832 119.874Z" fill="#2626BC"/>
<path d="M59.5488 126.457H51.4703C50.3918 126.457 49.5172 125.613 49.5172 124.572C49.5172 123.531 50.3918 122.686 51.4703 122.686H59.5488C60.6273 122.686 61.502 123.531 61.502 124.572C61.502 125.613 60.6273 126.457 59.5488 126.457Z" fill="#2626BC"/>
<path d="M146.577 108.686H53.4235C51.266 108.686 49.5172 106.998 49.5172 104.915V85.699C49.5172 83.6161 51.266 81.9277 53.4235 81.9277H146.577C148.734 81.9277 150.483 83.6161 150.483 85.699V104.915C150.483 106.998 148.734 108.686 146.577 108.686Z" fill="white"/>
<path d="M146.577 110.572H53.4235C50.1926 110.572 47.5641 108.034 47.5641 104.915V85.6998C47.5641 82.5806 50.1922 80.043 53.4235 80.043H146.577C149.808 80.043 152.436 82.5806 152.436 85.6998V104.915C152.436 108.034 149.808 110.572 146.577 110.572ZM53.4235 83.8138C52.3465 83.8138 51.4703 84.6597 51.4703 85.6995V104.915C51.4703 105.954 52.3465 106.8 53.4235 106.8H146.577C147.654 106.8 148.53 105.954 148.53 104.915V85.6995C148.53 84.6597 147.654 83.8138 146.577 83.8138H53.4235Z" fill="#2626BC"/>
<path d="M76.686 97.3036L74.6176 95.3069L76.686 93.3101C77.4485 92.574 77.4485 91.3798 76.686 90.6437C75.9235 89.9072 74.6864 89.9072 73.9239 90.6437L71.8555 92.6404L69.7871 90.6437C69.0246 89.9072 67.7879 89.9072 67.025 90.6437C66.2625 91.3798 66.2625 92.574 67.025 93.3101L69.0934 95.3069L67.025 97.3036C66.2625 98.0397 66.2625 99.234 67.025 99.9701C67.7875 100.707 69.0246 100.707 69.7871 99.9701L71.8555 97.9734L73.9239 99.9701C74.6864 100.707 75.9235 100.707 76.686 99.9701C77.4489 99.2336 77.4489 98.0397 76.686 97.3036Z" fill="#2626BC"/>
<path d="M95.4492 97.3035L93.3808 95.3068L95.4492 93.3101C96.2117 92.574 96.2117 91.3797 95.4492 90.6437C94.6867 89.9072 93.4496 89.9072 92.6871 90.6437L90.6187 92.6404L88.5504 90.6437C87.7879 89.9072 86.5507 89.9072 85.7882 90.6437C85.0257 91.3797 85.0257 92.574 85.7882 93.3101L87.8566 95.3068L85.7882 97.3035C85.0257 98.0395 85.0257 99.2338 85.7882 99.9699C86.5507 100.706 87.7875 100.706 88.5504 99.9699L90.6187 97.9732L92.6871 99.9699C93.4496 100.706 94.6867 100.706 95.4492 99.9699C96.2117 99.2334 96.2117 98.0395 95.4492 97.3035Z" fill="#2626BC"/>
<path d="M114.212 97.3035L112.144 95.3068L114.212 93.3101C114.975 92.574 114.975 91.3797 114.212 90.6437C113.45 89.9072 112.213 89.9072 111.45 90.6437L109.382 92.6404L107.313 90.6437C106.55 89.9072 105.314 89.9072 104.551 90.6437C103.789 91.3797 103.789 92.574 104.551 93.3101L106.62 95.3068L104.551 97.3035C103.789 98.0395 103.789 99.2338 104.551 99.9699C105.314 100.706 106.551 100.706 107.313 99.9699L109.382 97.9732L111.45 99.9699C112.213 100.706 113.45 100.706 114.212 99.9699C114.975 99.2334 114.975 98.0395 114.212 97.3035Z" fill="#2626BC"/>
<path d="M132.975 97.3035L130.907 95.3068L132.975 93.3101C133.738 92.574 133.738 91.3797 132.975 90.6437C132.213 89.9072 130.975 89.9072 130.213 90.6437L128.145 92.6404L126.076 90.6437C125.314 89.9072 124.077 89.9072 123.314 90.6437C122.552 91.3797 122.552 92.574 123.314 93.3101L125.382 95.3068L123.314 97.3035C122.552 98.0395 122.552 99.2338 123.314 99.9699C124.077 100.706 125.314 100.706 126.076 99.9699L128.145 97.9732L130.213 99.9699C130.975 100.706 132.213 100.706 132.975 99.9699C133.738 99.2334 133.738 98.0395 132.975 97.3035Z" fill="#2626BC"/>
<path d="M76.625 70.1079H123.375C124.454 70.1079 125.328 70.9522 125.328 71.9933C125.328 73.0344 124.454 73.8787 123.375 73.8787H76.625C75.5465 73.8787 74.6719 73.0344 74.6719 71.9933C74.6719 70.9518 75.5461 70.1079 76.625 70.1079Z" fill="#2626BC"/>
<path d="M84.2422 62.3936H115.758C116.837 62.3936 117.711 63.2379 117.711 64.2791C117.711 65.3202 116.837 66.1646 115.758 66.1646H84.2422C83.1637 66.1646 82.2891 65.3202 82.2891 64.2791C82.2891 63.2379 83.1633 62.3936 84.2422 62.3936Z" fill="#2626BC"/>
<path d="M66.3075 141.753H58.2289C57.1504 141.753 56.2758 140.909 56.2758 139.867C56.2758 138.826 57.1504 137.982 58.2289 137.982H66.3075C67.386 137.982 68.2606 138.826 68.2606 139.867C68.2606 140.909 67.386 141.753 66.3075 141.753Z" fill="#2626BC"/>
<path d="M91.4621 141.753H83.3836C82.3051 141.753 81.4305 140.908 81.4305 139.867C81.4305 138.826 82.3051 137.982 83.3836 137.982H91.4621C92.5406 137.982 93.4152 138.826 93.4152 139.867C93.4152 140.908 92.5406 141.753 91.4621 141.753Z" fill="#2626BC"/>
<path d="M116.616 141.753H108.538C107.459 141.753 106.585 140.908 106.585 139.867C106.585 138.826 107.459 137.982 108.538 137.982H116.616C117.695 137.982 118.57 138.826 118.57 139.867C118.57 140.908 117.695 141.753 116.616 141.753Z" fill="#2626BC"/>
<path d="M141.771 141.753H133.693C132.614 141.753 131.74 140.908 131.74 139.867C131.74 138.826 132.614 137.982 133.693 137.982H141.771C142.85 137.982 143.724 138.826 143.724 139.867C143.724 140.908 142.85 141.753 141.771 141.753Z" fill="#2626BC"/>
<path d="M82.7793 16.1804C79.7012 16.1804 77.1969 13.7626 77.1969 10.7908C77.1969 7.81867 79.7012 5.40088 82.7793 5.40088C85.8579 5.40088 88.3622 7.81867 88.3622 10.7908C88.3622 13.7623 85.8579 16.1804 82.7793 16.1804ZM82.7793 9.17219C81.8551 9.17219 81.1032 9.89854 81.1032 10.7908C81.1032 11.6831 81.8551 12.4091 82.7793 12.4091C83.7036 12.4091 84.4559 11.6831 84.4559 10.7908C84.4559 9.89854 83.7036 9.17219 82.7793 9.17219Z" fill="#6583FE"/>
<path d="M47.0407 175.455C43.9625 175.455 41.4583 173.038 41.4583 170.065C41.4583 167.094 43.9625 164.676 47.0407 164.676C50.1188 164.676 52.623 167.094 52.623 170.065C52.623 173.038 50.1188 175.455 47.0407 175.455ZM47.0407 168.447C46.1164 168.447 45.3645 169.173 45.3645 170.065C45.3645 170.958 46.1164 171.684 47.0407 171.684C47.9649 171.684 48.7168 170.958 48.7168 170.065C48.7168 169.173 47.9649 168.447 47.0407 168.447Z" fill="#6583FE"/>
<path d="M64.1329 12.1235C63.054 12.1235 62.1797 11.2795 62.1797 10.2379C62.1797 8.99004 61.1286 7.9752 59.836 7.9752C58.7571 7.9752 57.8829 7.13121 57.8829 6.0896C57.8829 5.04799 58.7571 4.20399 59.836 4.20399C61.1286 4.20399 62.1797 3.18916 62.1797 1.94127C62.1797 0.899661 63.054 0.0556641 64.1329 0.0556641C65.2118 0.0556641 66.086 0.899661 66.086 1.94127C66.086 3.18916 67.1372 4.20399 68.4297 4.20399C69.5087 4.20399 70.3829 5.04799 70.3829 6.0896C70.3829 7.13121 69.5087 7.9752 68.4297 7.9752C67.1372 7.9752 66.086 8.99004 66.086 10.2379C66.086 11.2792 65.2114 12.1235 64.1329 12.1235Z" fill="#6583FE"/>
<path d="M125.108 176.099C124.029 176.099 123.155 175.255 123.155 174.214C123.155 172.966 122.104 171.951 120.811 171.951C119.732 171.951 118.858 171.107 118.858 170.065C118.858 169.024 119.732 168.18 120.811 168.18C122.104 168.18 123.155 167.165 123.155 165.917C123.155 164.875 124.029 164.031 125.108 164.031C126.187 164.031 127.061 164.875 127.061 165.917C127.061 167.165 128.113 168.18 129.405 168.18C130.484 168.18 131.358 169.024 131.358 170.065C131.358 171.107 130.484 171.951 129.405 171.951C128.113 171.951 127.061 172.966 127.061 174.214C127.061 175.255 126.187 176.099 125.108 176.099Z" fill="#6583FE"/>
<path d="M143.724 173.387C142.645 173.387 141.771 172.543 141.771 171.501C141.771 170.253 140.72 169.239 139.427 169.239C138.348 169.239 137.474 168.395 137.474 167.353C137.474 166.311 138.348 165.467 139.427 165.467C140.72 165.467 141.771 164.452 141.771 163.204C141.771 162.163 142.645 161.319 143.724 161.319C144.803 161.319 145.677 162.163 145.677 163.204C145.677 164.452 146.729 165.467 148.021 165.467C149.1 165.467 149.974 166.311 149.974 167.353C149.974 168.395 149.1 169.239 148.021 169.239C146.729 169.239 145.677 170.253 145.677 171.501C145.677 172.543 144.803 173.387 143.724 173.387Z" fill="#6583FE"/>
<defs>
<linearGradient id="paint0_linear" x1="26.786" y1="155.068" x2="149.069" y2="4.11861" gradientUnits="userSpaceOnUse">
<stop stop-color="#D2DEFF" stop-opacity="0"/>
<stop offset="1" stop-color="#B7C5FF"/>
</linearGradient>
</defs>
</svg>
